<?xml version="1.0" standalone="no"?>
<!DOCTYPE svg PUBLIC "-//W3C//DTD SVG 20010904//EN"
 "http://www.w3.org/TR/2001/REC-SVG-20010904/DTD/svg10.dtd">
<svg version="1.0" xmlns="http://www.w3.org/2000/svg"
 width="510.000000pt" height="528.000000pt" viewBox="0 0 510.000000 528.000000"
 preserveAspectRatio="xMidYMid meet">
<metadata>
Created by potrace 1.16, written by Peter Selinger 2001-2019
</metadata>
<g transform="translate(0.000000,528.000000) scale(0.100000,-0.100000)"
fill="#000000" stroke="none">
<path d="M1997 4863 c-2 -2 -219 -10 -483 -18 -507 -16 -637 -27 -661 -54 -67
-77 -77 -108 -94 -292 -13 -141 -7 -617 11 -974 7 -121 13 -596 14 -1060 2
-462 6 -865 9 -895 4 -30 12 -102 18 -160 14 -131 55 -229 115 -277 22 -17 98
-53 169 -81 223 -86 295 -99 610 -113 127 -5 334 -14 460 -19 127 -5 266 -14
310 -19 99 -12 248 -13 340 -2 59 8 232 28 365 44 19 2 62 11 95 20 33 9 107
21 165 27 122 13 122 13 157 124 13 39 29 87 37 106 15 39 37 133 60 255 26
140 38 405 34 715 -5 270 -12 395 -62 995 -9 99 -20 295 -26 435 -14 323 -47
712 -66 766 -7 22 -29 101 -48 175 -19 74 -40 146 -47 161 -16 35 -83 78 -179
114 l-75 29 -612 1 c-337 0 -614 -1 -616 -3z m1268 -51 c152 -47 183 -80 219
-229 14 -59 34 -135 46 -168 24 -70 56 -348 65 -570 9 -234 25 -504 40 -690 8
-93 17 -217 20 -275 4 -58 13 -168 21 -245 22 -203 29 -614 15 -855 -11 -195
-24 -294 -57 -422 -7 -32 -14 -66 -14 -75 0 -10 -7 -31 -15 -47 -8 -15 -15
-34 -15 -41 0 -8 -5 -26 -12 -42 -6 -15 -18 -48 -27 -73 -19 -52 -27 -55 -186
-65 -55 -4 -138 -16 -185 -26 -47 -11 -137 -27 -200 -35 -63 -7 -127 -16 -142
-20 -41 -8 -34 10 19 51 195 149 388 383 491 597 49 100 104 263 126 373 9 44
23 110 31 146 17 76 20 189 5 189 -5 0 -10 -19 -11 -42 -1 -123 -82 -442 -151
-603 -88 -203 -289 -462 -468 -603 -25 -20 -64 -54 -87 -76 -38 -35 -49 -40
-101 -44 -32 -2 -112 1 -178 8 -65 6 -213 15 -329 20 -115 5 -261 14 -324 20
-111 10 -117 12 -223 68 -180 94 -306 210 -405 372 -56 92 -83 127 -83 109 0
-21 46 -104 102 -185 86 -125 206 -230 358 -313 39 -21 67 -41 62 -45 -14 -8
-222 10 -313 28 -79 16 -197 54 -318 104 -211 88 -227 176 -223 1232 2 489 -2
763 -15 1080 -10 234 -18 571 -17 750 1 304 2 328 22 375 11 28 23 74 27 104
10 85 26 115 71 129 22 8 139 17 269 23 309 13 719 26 723 23 2 -1 -14 -21
-36 -43 -99 -102 -330 -450 -430 -647 -69 -135 -95 -227 -96 -334 -1 -86 18
-71 26 20 11 125 50 228 163 428 84 147 281 428 362 516 l57 61 170 6 c94 4
378 5 631 3 414 -3 466 -5 520 -22z"/>
<path d="M2290 4800 c0 -5 17 -14 38 -19 20 -6 105 -49 187 -95 83 -47 170
-96 195 -109 75 -41 217 -173 269 -251 59 -88 99 -172 110 -231 10 -51 17 -63
30 -49 13 12 -11 102 -49 181 -75 161 -185 271 -402 399 -265 159 -313 184
-346 184 -18 0 -32 -4 -32 -10z"/>
<path d="M2197 4722 c12 -9 37 -28 55 -41 96 -70 218 -272 258 -428 6 -26 17
-43 25 -43 8 0 15 4 15 9 0 19 -49 159 -70 201 -76 150 -224 320 -278 320
l-27 -1 22 -17z"/>
<path d="M1980 4710 c0 -21 40 -416 45 -447 3 -18 11 -33 17 -33 12 0 7 120
-12 275 -5 44 -12 110 -15 148 -5 48 -11 67 -21 67 -8 0 -14 -5 -14 -10z"/>
<path d="M2281 3628 c-57 -144 -128 -351 -150 -436 l-27 -103 -12 58 c-9 45
-107 304 -161 428 -5 11 -12 28 -15 38 -6 20 -26 23 -26 4 0 -7 21 -67 46
-132 94 -243 126 -331 138 -385 12 -52 11 -61 -16 -150 -57 -189 -86 -286
-103 -350 -10 -36 -24 -90 -32 -120 -9 -30 -19 -65 -24 -77 -9 -24 6 -42 21
-27 5 5 18 47 30 94 12 47 37 139 57 205 20 66 48 164 64 218 16 53 29 112 29
129 0 42 12 28 44 -51 14 -36 32 -72 39 -80 7 -9 23 -38 34 -66 33 -77 61
-134 95 -200 17 -33 41 -89 54 -125 13 -37 30 -66 39 -68 8 -2 15 1 15 6 0 28
-66 183 -117 277 -6 11 -19 38 -29 60 -9 22 -43 94 -75 161 -37 74 -59 133
-59 154 0 42 32 160 70 260 92 241 110 292 105 300 -11 17 -20 11 -34 -22z"/>
<path d="M1362 3560 c-40 -51 -150 -313 -186 -440 l-12 -44 -24 49 c-13 28
-35 68 -49 90 -14 22 -30 48 -36 57 -5 9 -36 59 -67 110 -32 52 -58 99 -58
106 0 6 -7 12 -15 12 -27 0 -16 -43 30 -115 101 -159 173 -283 186 -318 12
-35 10 -45 -38 -184 -28 -82 -67 -197 -88 -258 -21 -60 -44 -125 -51 -143 -8
-18 -17 -51 -20 -73 -6 -33 -4 -41 7 -37 8 2 41 84 75 184 91 267 148 424 155
424 11 0 178 -356 210 -450 18 -52 43 -116 56 -142 13 -25 26 -60 29 -77 4
-18 12 -30 18 -28 23 8 16 54 -23 146 -22 53 -52 128 -67 166 -14 39 -54 129
-89 200 -125 259 -119 241 -105 293 7 26 21 67 31 92 10 25 41 104 69 176 28
72 64 150 80 174 26 40 30 61 12 59 -4 0 -17 -13 -30 -29z"/>
<path d="M3105 3460 c-7 -12 19 -69 43 -96 59 -64 64 -80 64 -192 0 -84 -6
-129 -27 -207 -14 -55 -30 -118 -35 -140 -4 -22 -19 -48 -33 -60 -27 -22 -52
-64 -43 -72 3 -4 17 6 31 22 31 33 39 29 24 -13 -7 -21 -18 -32 -30 -32 -20 0
-48 -45 -36 -57 4 -3 17 3 30 15 13 12 28 22 34 22 14 0 33 48 33 80 -1 14 6
50 15 80 19 63 39 141 63 252 9 42 20 79 23 83 10 9 43 -43 65 -100 10 -27 42
-93 70 -145 28 -52 62 -119 74 -147 21 -49 50 -72 50 -40 0 7 -50 112 -111
233 l-110 219 5 80 c9 133 16 163 38 168 27 7 17 32 -12 32 -30 0 -46 -31 -57
-110 -5 -41 -13 -61 -23 -63 -10 -2 -16 5 -17 18 -1 11 -13 34 -27 51 -14 16
-36 52 -48 79 -22 48 -40 61 -53 40z m150 -280 c-5 -8 -11 -8 -17 -2 -6 6 -7
16 -3 22 5 8 11 8 17 2 6 -6 7 -16 3 -22z"/>
<path d="M2560 3414 c-13 -34 -30 -146 -30 -201 0 -51 -10 -54 -33 -10 -36 69
-98 162 -110 162 -27 0 -15 -37 41 -121 70 -106 75 -119 60 -144 -10 -16 -9
-27 8 -62 18 -37 20 -52 13 -108 -5 -36 -11 -152 -15 -257 -6 -172 -5 -193 9
-193 18 0 23 43 31 255 8 194 17 285 30 285 6 0 22 -19 35 -43 22 -38 93 -131
185 -242 81 -99 146 -189 162 -225 24 -54 52 -54 44 0 -3 22 -141 207 -267
358 -81 98 -123 171 -123 217 0 26 -6 47 -15 55 -11 9 -15 34 -15 94 0 45 7
108 15 139 18 71 18 67 0 67 -9 0 -20 -12 -25 -26z"/>
<path d="M2902 3347 c-12 -18 -26 -58 -32 -88 -18 -87 -17 -86 -53 -52 -36 35
-100 73 -122 73 -23 0 -17 -28 7 -36 42 -13 117 -69 123 -92 3 -13 -4 -43 -20
-76 -30 -64 -64 -164 -65 -189 0 -42 24 -6 55 80 39 109 43 116 62 109 8 -3
24 -1 36 5 19 11 25 7 55 -27 19 -21 47 -65 63 -96 28 -56 45 -75 56 -64 15
15 -92 198 -122 210 -9 3 -15 18 -15 35 0 23 -4 29 -15 25 -8 -4 -15 -17 -15
-31 0 -19 -4 -24 -16 -19 -9 3 -17 6 -18 6 -2 0 5 24 15 53 10 28 18 60 19 70
0 10 10 41 21 68 27 63 13 89 -19 36z"/>
<path d="M1660 3234 c0 -9 -12 -52 -27 -96 l-26 -79 -59 61 c-57 58 -88 75
-88 47 0 -8 22 -32 49 -55 71 -60 77 -81 51 -182 -12 -46 -27 -92 -35 -103
-17 -24 -9 -47 16 -47 12 0 21 9 25 28 3 15 10 37 15 50 5 13 9 32 9 43 0 11
7 36 15 56 l15 37 96 -97 c86 -88 124 -115 124 -87 0 5 -45 57 -101 114 -114
119 -112 111 -63 228 30 71 31 98 4 98 -12 0 -20 -7 -20 -16z"/>
<path d="M1836 1502 c-7 -12 14 -182 30 -242 34 -122 85 -253 104 -265 23 -14
19 22 -8 78 -51 104 -102 302 -102 400 0 34 -12 48 -24 29z"/>
<path d="M2625 1358 c-29 -51 -152 -215 -198 -265 -22 -24 -61 -56 -86 -70
-25 -15 -48 -28 -50 -29 -1 -2 0 -7 3 -13 7 -11 65 12 113 47 30 21 134 152
199 251 16 24 37 55 46 70 21 31 22 41 5 41 -7 0 -21 -15 -32 -32z"/>
</g>
</svg>
