<?xml version="1.0" standalone="no"?>
<!DOCTYPE svg PUBLIC "-//W3C//DTD SVG 20010904//EN"
 "http://www.w3.org/TR/2001/REC-SVG-20010904/DTD/svg10.dtd">
<svg version="1.0" xmlns="http://www.w3.org/2000/svg"
 width="510.000000pt" height="528.000000pt" viewBox="0 0 510.000000 528.000000"
 preserveAspectRatio="xMidYMid meet">
<metadata>
Created by potrace 1.16, written by Peter Selinger 2001-2019
</metadata>
<g transform="translate(0.000000,528.000000) scale(0.100000,-0.100000)"
fill="#000000" stroke="none">
<path d="M950 4850 c0 -5 7 -10 15 -10 8 0 15 5 15 10 0 6 -7 10 -15 10 -8 0
-15 -4 -15 -10z"/>
<path d="M2280 4784 c-85 -7 -207 -18 -270 -24 -63 -6 -182 -18 -265 -25 -82
-8 -157 -16 -165 -19 -8 -3 -94 -12 -190 -21 -185 -16 -273 -34 -380 -79 -36
-15 -90 -34 -120 -43 -80 -22 -123 -47 -165 -95 -63 -74 -67 -86 -78 -288 -27
-464 -7 -2195 32 -2780 8 -126 21 -161 71 -204 40 -33 79 -43 229 -56 68 -6
156 -15 195 -21 280 -44 1162 -44 1316 0 19 5 82 17 140 26 58 9 134 20 170
26 36 5 94 19 130 30 36 10 83 24 105 29 48 12 49 13 102 71 33 37 49 69 79
160 l38 114 8 400 c4 220 11 486 14 590 5 159 2 214 -15 340 -49 358 -56 401
-95 580 -24 114 -34 218 -41 430 -7 235 -29 448 -54 539 -30 109 -126 247
-207 297 -30 18 -57 22 -202 30 -199 10 -187 10 -382 -7z m508 -35 c68 -11 99
-33 159 -117 114 -155 123 -204 153 -817 9 -179 35 -383 54 -413 5 -9 61 -385
82 -552 12 -101 15 -171 10 -275 -4 -77 -11 -327 -15 -555 -8 -413 -8 -415
-35 -500 -15 -47 -30 -94 -33 -105 -20 -65 -94 -136 -158 -150 -16 -4 -60 -16
-97 -26 -38 -11 -125 -28 -195 -39 -71 -10 -143 -22 -160 -26 -18 -3 -33 -3
-33 0 0 7 39 67 123 189 120 173 143 207 185 277 44 76 102 185 102 195 0 3
-7 5 -15 5 -8 0 -22 -17 -30 -37 -35 -83 -152 -268 -308 -483 -30 -41 -64 -94
-77 -117 -13 -23 -30 -45 -38 -48 -8 -3 -87 -10 -176 -15 -147 -8 -199 -13
-278 -25 -16 -3 -28 0 -28 5 0 25 182 307 252 392 47 56 60 84 36 76 -13 -5
-167 -197 -168 -210 0 -5 -15 -29 -34 -55 -18 -27 -53 -82 -76 -123 -49 -85
-54 -90 -90 -85 -25 5 -146 14 -188 15 -22 0 -22 1 -7 30 20 39 19 43 -10 36
-17 -4 -60 10 -147 47 -68 30 -154 66 -191 82 -37 15 -103 49 -145 76 -42 26
-105 64 -140 84 -35 20 -79 50 -97 67 -40 35 -66 34 -38 -1 21 -26 232 -162
333 -215 36 -18 97 -46 135 -61 86 -35 241 -110 263 -127 13 -11 5 -14 -49
-20 -70 -8 -208 2 -454 32 -88 11 -193 22 -233 25 -93 8 -129 20 -170 58 -39
37 -52 79 -52 172 0 39 -5 102 -10 140 -10 81 -28 814 -37 1555 -8 613 -7 694
11 1001 22 365 17 359 391 490 92 32 139 41 285 57 96 11 177 18 179 16 2 -2
-33 -41 -77 -86 -150 -153 -222 -254 -302 -421 -52 -107 -68 -162 -77 -264 -6
-74 12 -88 20 -15 16 132 76 286 170 433 33 52 143 181 261 305 l53 56 86 9
c48 5 126 13 175 19 48 5 139 14 202 20 63 6 180 16 260 24 150 14 392 12 488
-5z"/>
<path d="M1959 4680 c-19 -12 -8 -20 41 -31 78 -18 213 -131 362 -302 73 -85
144 -177 158 -205 22 -46 50 -69 50 -42 0 45 -206 303 -335 421 -131 119 -239
181 -276 159z"/>
<path d="M1680 4660 c0 -6 21 -24 48 -41 100 -63 202 -212 259 -378 22 -65 43
-149 43 -172 0 -12 4 -17 11 -13 30 18 -36 246 -106 365 -51 87 -128 176 -191
220 -44 30 -64 36 -64 19z"/>
<path d="M1597 4529 c-10 -174 -9 -389 2 -389 5 0 11 91 15 203 4 111 7 224 8
251 1 27 -3 51 -8 53 -7 2 -13 -41 -17 -118z"/>
<path d="M984 4016 c-9 -23 3 -91 38 -231 16 -66 36 -147 44 -180 7 -33 20
-84 28 -114 l15 -53 -50 -137 c-28 -75 -67 -179 -87 -231 -32 -84 -72 -220
-72 -242 0 -4 9 -8 20 -8 14 0 20 7 20 24 0 23 53 196 82 266 8 19 32 83 53
143 20 59 41 107 45 107 7 0 22 -57 56 -212 8 -40 29 -120 45 -178 16 -58 29
-117 29 -132 0 -18 5 -28 15 -28 23 0 19 54 -14 166 -16 54 -32 115 -36 134
-13 74 -37 177 -52 228 -20 70 -14 116 37 252 51 137 139 392 140 402 0 4 -6
5 -14 2 -15 -6 -34 -42 -47 -89 -11 -42 -63 -188 -71 -201 -4 -6 -22 -54 -39
-108 -17 -53 -35 -96 -38 -96 -4 0 -22 60 -39 133 -18 72 -40 155 -48 182 -8
28 -18 86 -22 129 -7 77 -24 109 -38 72z"/>
<path d="M2500 3715 c0 -8 7 -15 15 -15 8 0 15 7 15 15 0 8 -7 15 -15 15 -8 0
-15 -7 -15 -15z"/>
<path d="M2310 3665 c0 -13 5 -58 11 -99 l11 -76 -71 -76 c-72 -77 -83 -97
-56 -108 10 -3 20 6 31 27 15 29 103 123 108 115 5 -7 29 -136 33 -180 3 -32
10 -48 19 -48 18 0 18 56 -1 135 -27 114 -23 130 50 202 36 35 70 63 75 63 6
0 10 7 10 15 0 31 -35 13 -97 -49 -74 -73 -75 -73 -88 42 -5 43 -11 62 -21 62
-8 0 -14 -10 -14 -25z"/>
<path d="M1762 3638 c-8 -8 -10 -67 -5 -222 l6 -211 -24 30 c-13 16 -30 37
-37 45 -67 79 -104 128 -108 147 -4 13 -10 23 -14 23 -5 0 -31 18 -60 41 -31
25 -57 38 -67 35 -12 -5 -6 -16 27 -54 23 -26 50 -54 59 -62 26 -24 144 -161
174 -203 46 -61 55 -114 67 -377 6 -135 15 -285 20 -335 5 -49 10 -96 10 -102
0 -7 7 -13 15 -13 11 0 15 11 15 39 0 25 5 41 15 45 16 6 21 61 6 70 -4 3 -11
63 -15 133 -4 71 -11 155 -15 188 -9 66 -2 147 14 151 6 2 37 -39 70 -92 132
-209 176 -274 205 -304 17 -17 33 -45 37 -61 3 -16 12 -29 20 -29 12 0 14 9 8
47 -8 52 -25 91 -61 139 -13 17 -24 36 -24 42 0 6 -10 23 -23 39 -13 15 -36
51 -52 78 -28 50 -139 201 -162 220 -6 5 -20 31 -32 56 -18 42 -21 70 -23 263
-3 178 -6 218 -18 231 -12 12 -19 12 -28 3z"/>
<path d="M2855 3183 c-4 -20 -13 -46 -21 -57 -8 -11 -14 -28 -14 -38 0 -20
-22 -36 -28 -20 -8 24 -95 122 -108 122 -22 0 -17 -12 36 -73 57 -66 67 -95
52 -141 -6 -17 -22 -65 -37 -106 -14 -41 -23 -81 -20 -89 9 -23 20 -2 50 89
15 47 32 94 38 105 10 18 11 17 26 -16 20 -45 72 -109 89 -109 19 0 14 25 -9
46 -12 10 -37 43 -56 71 l-35 53 31 66 c30 63 41 134 22 134 -5 0 -12 -17 -16
-37z"/>
<path d="M2475 2643 c-3 -16 -12 -47 -20 -70 -12 -37 -12 -63 -1 -143 3 -20
72 -113 172 -232 45 -53 85 -106 88 -116 4 -11 40 -45 80 -76 41 -31 77 -63
80 -71 6 -17 36 -21 36 -5 0 6 -35 45 -79 88 -87 85 -197 215 -296 348 -71 94
-78 120 -51 191 24 65 29 113 12 113 -9 0 -18 -12 -21 -27z"/>
<path d="M2300 2626 c0 -8 5 -18 10 -21 24 -15 90 -116 90 -137 0 -13 4 -39
10 -58 7 -24 6 -60 -4 -124 -8 -50 -20 -138 -27 -196 -6 -58 -18 -136 -25
-175 -12 -67 -11 -85 4 -85 9 0 33 114 42 205 4 39 14 115 21 170 16 112 18
221 6 277 -5 24 -27 60 -58 95 -55 63 -69 73 -69 49z"/>
<path d="M1368 2418 c-7 -13 -15 -53 -18 -91 l-5 -67 -65 60 c-44 41 -68 56
-75 49 -7 -7 3 -22 30 -46 22 -20 56 -51 76 -69 l36 -32 7 -228 c8 -256 21
-452 30 -461 21 -21 23 31 11 222 -17 246 -19 412 -6 419 8 6 107 -79 261
-224 36 -33 97 -85 137 -116 40 -30 75 -59 78 -64 7 -11 25 -4 25 10 0 12 -39
52 -72 73 -33 20 -106 84 -208 181 -103 97 -187 169 -211 180 -15 7 -19 19
-19 66 0 32 7 77 15 100 8 23 15 46 15 51 0 18 -30 8 -42 -13z"/>
<path d="M1742 1778 c-11 -18 -22 -49 -26 -68 -3 -19 -10 -55 -15 -80 -26
-120 0 -350 51 -450 19 -37 23 -41 26 -23 2 12 -2 32 -9 45 -34 64 -62 291
-47 392 14 102 31 171 44 187 16 18 18 29 5 29 -5 0 -18 -15 -29 -32z"/>
</g>
</svg>
