<?xml version="1.0" standalone="no"?>
<!DOCTYPE svg PUBLIC "-//W3C//DTD SVG 20010904//EN"
 "http://www.w3.org/TR/2001/REC-SVG-20010904/DTD/svg10.dtd">
<svg version="1.0" xmlns="http://www.w3.org/2000/svg"
 width="503.000000pt" height="528.000000pt" viewBox="0 0 503.000000 528.000000"
 preserveAspectRatio="xMidYMid meet">
<metadata>
Created by potrace 1.16, written by Peter Selinger 2001-2019
</metadata>
<g transform="translate(0.000000,528.000000) scale(0.100000,-0.100000)"
fill="#000000" stroke="none">
<path d="M2315 4940 c-143 -4 -303 -13 -355 -19 -52 -6 -171 -15 -265 -21
-290 -17 -389 -32 -453 -70 -42 -25 -52 -25 -52 0 0 36 -29 21 -50 -27 -14
-30 -25 -85 -31 -148 -5 -55 -14 -125 -19 -155 -12 -67 -37 -296 -45 -405 -7
-98 -21 -240 -40 -405 -22 -182 -62 -791 -75 -1115 -6 -154 -13 -305 -15 -335
-3 -30 -8 -260 -11 -511 -7 -444 -6 -458 14 -525 24 -79 66 -133 193 -250 115
-106 125 -108 428 -96 180 6 265 5 347 -4 68 -9 240 -14 459 -14 376 -1 549
14 727 61 61 16 93 18 151 13 45 -4 94 -2 128 6 30 6 92 15 139 20 47 5 108
16 136 24 42 13 53 22 68 53 10 21 31 60 48 86 58 92 115 354 143 667 15 166
17 314 12 1410 -3 674 -10 1273 -15 1333 -8 91 -14 117 -42 173 -43 83 -137
187 -190 208 -98 39 -200 47 -645 50 -236 2 -547 0 -690 -4z m384 -45 c5 -6
11 -21 13 -35 2 -17 10 -26 26 -28 20 -3 22 0 16 24 -6 25 -5 26 18 21 14 -4
48 -21 76 -39 27 -18 103 -62 168 -98 221 -121 348 -277 400 -489 9 -40 14
-88 11 -111 -3 -22 -2 -42 2 -44 11 -7 77 18 76 29 0 6 -10 10 -22 10 -19 -1
-23 6 -28 50 -15 128 -62 250 -127 333 -93 119 -171 182 -342 276 -89 50 -157
96 -152 105 3 5 144 8 313 7 315 -3 402 -12 498 -51 46 -20 129 -114 164 -189
29 -61 31 -74 42 -272 18 -313 20 -2309 2 -2559 -14 -197 -35 -360 -59 -455
-7 -30 -21 -86 -30 -125 -9 -39 -38 -111 -66 -162 -39 -74 -55 -94 -76 -99
-15 -3 -43 -10 -62 -15 -19 -5 -55 -9 -80 -9 -25 -1 -74 -7 -110 -15 -89 -20
-147 -19 -158 1 -8 14 -15 15 -43 6 -61 -20 -180 -45 -185 -39 -3 3 5 15 18
26 62 53 81 74 169 186 144 181 197 264 248 385 39 90 61 175 61 231 0 24 5
62 11 83 6 22 12 66 12 97 2 54 3 57 25 56 20 -2 27 -13 47 -75 13 -40 28 -79
34 -86 6 -7 22 -40 35 -72 39 -95 43 -89 120 155 20 63 34 117 30 120 -8 8
-44 -37 -44 -55 0 -8 -9 -31 -20 -51 -11 -21 -20 -45 -20 -55 0 -9 -4 -20 -10
-23 -5 -3 -10 -27 -11 -53 0 -26 -3 -40 -6 -32 -3 8 -14 24 -23 35 -45 50 -93
247 -117 479 -13 121 -22 171 -32 174 -10 3 -12 -3 -7 -24 3 -16 10 -99 16
-184 5 -85 13 -172 16 -194 l6 -38 -41 7 -41 7 -1 -59 c-4 -160 -8 -208 -18
-211 -6 -2 -11 4 -11 13 0 19 -116 163 -157 195 -14 11 -32 20 -39 20 -23 0
-16 -24 14 -43 15 -11 38 -34 52 -51 84 -110 117 -146 133 -146 40 0 13 -104
-73 -275 -46 -92 -87 -153 -172 -258 -61 -77 -135 -164 -164 -194 -48 -49 -57
-54 -84 -48 -38 8 -41 -11 -3 -26 17 -6 23 -13 17 -19 -19 -19 -394 -63 -394
-47 0 1 37 41 83 87 106 109 340 454 320 473 -12 13 -21 7 -32 -20 -6 -16 -16
-37 -23 -47 -178 -269 -255 -367 -351 -447 l-58 -49 -100 0 c-74 0 -99 3 -99
13 0 7 4 17 9 22 16 17 98 218 119 291 48 169 66 284 44 292 -8 2 -12 -8 -12
-32 0 -30 -12 -84 -56 -246 -11 -43 -51 -141 -99 -244 l-46 -99 -74 6 c-41 3
-80 9 -87 14 -7 4 -83 8 -169 8 l-157 0 -33 32 c-19 18 -54 49 -78 70 -104 89
-171 264 -173 450 0 63 -11 82 -22 40 -18 -66 18 -270 64 -363 35 -72 98 -146
152 -180 21 -13 38 -28 38 -33 0 -12 -113 -21 -291 -22 -200 -2 -210 2 -344
142 -132 138 -141 160 -149 394 -5 149 5 674 19 915 2 47 9 198 15 335 6 138
16 306 21 375 5 69 16 224 24 345 8 121 19 249 24 285 6 36 17 142 26 235 32
347 47 482 61 570 8 50 14 108 14 131 0 48 6 57 32 43 13 -7 30 -7 53 1 43 14
45 30 5 30 -27 0 -30 3 -30 30 0 24 9 36 42 60 75 55 166 71 518 90 107 6 202
13 210 16 8 3 129 8 268 11 l252 6 0 -26 c0 -33 18 -44 34 -21 13 17 17 15 62
-23 117 -99 243 -246 303 -353 33 -61 66 -159 76 -232 7 -45 17 -59 29 -40 9
15 -34 199 -60 252 -17 34 -83 140 -94 150 -3 3 -22 26 -43 52 -48 60 -155
168 -201 203 -20 15 -34 30 -32 34 6 10 125 6 135 -4z"/>
<path d="M1983 4855 c-56 -24 -141 -95 -195 -163 -84 -105 -118 -150 -118
-156 0 -3 -20 -39 -44 -80 -114 -193 -154 -363 -125 -532 14 -80 7 -115 -10
-54 -53 185 -102 158 -208 -115 -19 -49 -43 -111 -53 -136 -11 -25 -30 -79
-44 -120 -13 -41 -38 -112 -55 -157 -52 -143 -76 -292 -47 -292 9 0 16 17 21
53 21 161 266 820 310 834 6 2 19 -20 29 -49 10 -29 24 -66 31 -83 23 -49 65
-162 96 -256 25 -77 44 -189 52 -313 2 -42 22 -60 34 -30 9 25 -16 267 -34
322 -8 26 -31 88 -51 137 -26 66 -36 107 -37 155 -1 36 -5 108 -10 160 -9 105
8 193 60 323 85 213 285 467 418 530 31 14 57 29 57 32 0 10 -45 4 -77 -10z"/>
<path d="M2256 4821 c-4 -6 -1 -44 8 -84 18 -88 34 -192 41 -272 8 -87 26
-175 36 -175 12 0 11 14 -6 186 -28 265 -55 384 -79 345z"/>
<path d="M2875 4023 c-50 -94 -114 -268 -102 -279 13 -13 35 17 52 74 20 63
89 207 104 216 8 5 71 -137 71 -159 0 -6 13 -42 75 -200 50 -126 115 -317 115
-336 0 -20 34 -27 44 -10 7 11 -64 219 -148 433 -36 92 -66 176 -66 185 0 22
-78 163 -90 163 -4 0 -29 -39 -55 -87z"/>
<path d="M3621 4067 c-16 -21 -59 -172 -67 -240 -7 -59 -18 -72 -29 -36 -19
58 -157 249 -180 249 -29 0 -163 -198 -172 -255 -9 -56 12 -41 52 38 51 101
105 187 116 187 5 0 13 -10 18 -23 5 -12 24 -41 42 -63 19 -23 45 -60 59 -84
14 -24 35 -54 47 -67 13 -14 24 -39 25 -61 4 -57 -13 -285 -23 -304 -12 -23
10 -36 26 -15 7 9 15 63 18 119 12 200 59 483 87 528 8 12 13 11 32 -8 13 -12
30 -39 37 -59 27 -78 54 -123 74 -123 10 0 17 3 15 8 -2 4 -14 30 -27 57 -39
87 -65 136 -76 145 -21 18 -61 22 -74 7z"/>
<path d="M2478 4022 c-10 -21 -18 -44 -18 -52 0 -7 -13 -35 -30 -62 -16 -26
-30 -53 -30 -59 0 -6 -11 -34 -25 -62 -26 -56 -90 -234 -160 -447 -44 -130
-56 -200 -35 -200 6 0 10 9 10 19 0 25 40 154 91 291 21 58 50 141 65 185 14
44 48 130 76 190 27 61 54 127 60 147 6 21 14 36 18 33 4 -2 10 -78 14 -167 4
-90 15 -226 26 -303 10 -77 24 -212 30 -300 6 -87 13 -161 15 -164 16 -15 17
31 7 202 -7 105 -19 234 -27 285 -13 89 -37 435 -32 477 1 13 -5 21 -18 23
-15 1 -25 -8 -37 -36z"/>
<path d="M2017 4013 c-20 -24 -106 -165 -147 -245 -21 -40 -31 -71 -27 -82 9
-24 23 -13 45 37 19 42 126 225 141 240 5 5 12 -4 15 -19 4 -15 18 -41 31 -58
13 -17 40 -64 60 -104 20 -41 42 -71 48 -69 21 7 8 48 -39 126 -25 42 -57 102
-72 134 -15 31 -29 57 -33 57 -3 0 -13 -8 -22 -17z"/>
<path d="M2636 2498 c-7 -25 -26 -196 -26 -239 -1 -74 -47 -298 -110 -529 -17
-64 -23 -147 -11 -154 6 -4 11 -6 12 -4 0 2 3 23 5 47 3 25 12 63 20 85 7 23
14 50 14 61 0 11 12 65 26 120 15 55 32 127 39 160 13 56 55 402 55 446 0 21
-19 26 -24 7z"/>
<path d="M3217 2443 c-4 -3 -7 -17 -7 -30 0 -63 -106 -451 -162 -593 -76 -191
-67 -192 -152 14 -23 55 -46 101 -52 103 -24 8 -23 -32 2 -91 14 -33 33 -79
42 -101 23 -57 74 -124 94 -125 33 0 89 132 178 424 24 80 100 383 100 401 0
7 -36 6 -43 -2z"/>
<path d="M1466 2413 c-21 -68 -36 -282 -37 -521 -1 -147 -4 -280 -8 -296 -6
-26 -10 -22 -68 76 -34 57 -82 147 -108 201 -55 116 -142 269 -158 279 -7 4
-16 3 -21 -2 -5 -5 8 -38 34 -82 44 -76 59 -103 133 -253 80 -160 182 -325
201 -325 24 0 29 53 31 350 2 258 10 407 31 543 6 39 4 47 -9 47 -9 0 -18 -8
-21 -17z"/>
<path d="M2266 2392 c-9 -15 10 -104 89 -427 41 -165 77 -326 81 -358 5 -50
17 -77 29 -65 11 10 -23 194 -71 385 -84 335 -86 344 -93 407 -6 55 -21 80
-35 58z"/>
<path d="M1804 1875 c-11 -27 139 -306 170 -318 20 -8 27 3 80 133 60 143 71
178 62 187 -14 14 -28 -11 -123 -224 -7 -18 -18 -33 -23 -33 -4 0 -39 61 -76
135 -38 74 -72 135 -77 135 -4 0 -10 -7 -13 -15z"/>
</g>
</svg>
