<?xml version="1.0" standalone="no"?>
<!DOCTYPE svg PUBLIC "-//W3C//DTD SVG 20010904//EN"
 "http://www.w3.org/TR/2001/REC-SVG-20010904/DTD/svg10.dtd">
<svg version="1.0" xmlns="http://www.w3.org/2000/svg"
 width="517.000000pt" height="528.000000pt" viewBox="0 0 517.000000 528.000000"
 preserveAspectRatio="xMidYMid meet">
<metadata>
Created by potrace 1.16, written by Peter Selinger 2001-2019
</metadata>
<g transform="translate(0.000000,528.000000) scale(0.100000,-0.100000)"
fill="#000000" stroke="none">
<path d="M1064 4955 c-62 -24 -97 -66 -109 -132 -13 -75 -39 -87 -29 -14 6 47
5 51 -14 51 -18 0 -21 -7 -24 -72 -3 -40 -12 -145 -21 -233 -22 -214 -46 -514
-57 -710 -31 -561 -35 -704 -35 -1325 0 -571 3 -690 18 -840 21 -204 36 -269
82 -360 45 -90 102 -137 252 -210 205 -100 264 -108 788 -117 345 -5 408 -4
545 13 85 10 180 18 210 16 177 -8 212 -2 380 74 54 24 57 28 87 97 42 101 51
190 58 587 4 190 9 351 11 359 3 8 5 211 4 452 l0 437 36 9 c44 10 45 26 2 33
-29 4 -33 9 -39 45 -17 99 -30 543 -28 953 2 343 -1 456 -11 487 -26 81 -63
151 -109 205 -26 30 -62 77 -81 104 -24 36 -47 55 -89 75 l-56 26 -220 -4
c-378 -6 -595 -6 -1060 2 -392 6 -455 5 -491 -8z m741 -31 c198 -9 421 -13
495 -10 415 18 472 18 540 -1 61 -17 68 -22 112 -82 26 -34 65 -82 86 -105 24
-27 52 -74 73 -127 l33 -84 8 -640 c4 -352 11 -674 16 -715 5 -41 5 -79 1 -84
-5 -6 -307 -10 -736 -11 -417 -1 -809 -7 -918 -14 -104 -6 -278 -16 -385 -21
-107 -5 -225 -13 -262 -16 l-68 -7 5 59 c2 33 9 174 15 314 17 393 29 617 40
705 5 44 16 177 25 295 21 294 38 378 66 316 7 -14 18 -27 25 -30 18 -7 18 23
-1 48 -10 13 -11 24 -5 36 5 9 12 40 16 68 6 46 11 55 42 74 86 53 197 58 777
32z m1370 -2073 c5 -97 5 -315 1 -486 -18 -791 -26 -1004 -36 -1052 -13 -61
-52 -154 -71 -170 -8 -6 -54 -28 -104 -49 l-90 -38 -130 2 c-72 2 -160 -2
-195 -8 -164 -29 -930 -28 -1115 1 -149 23 -315 88 -415 162 -69 52 -83 68
-120 142 -73 147 -91 343 -97 1056 l-5 556 79 7 c88 8 308 21 617 36 116 6
212 12 213 14 2 2 332 3 732 3 l729 -1 7 -175z"/>
<path d="M1705 4671 c-187 -7 -193 -8 -315 -91 -75 -51 -85 -64 -126 -161 -53
-126 -82 -221 -89 -296 -4 -38 -13 -103 -21 -147 -20 -109 -18 -246 6 -368 20
-103 20 -103 73 -153 45 -42 67 -55 143 -79 101 -32 284 -50 424 -43 47 3 200
10 340 15 277 12 362 22 444 53 109 40 202 136 227 234 4 16 22 75 39 130 47
151 62 252 60 409 -1 137 -1 141 -34 212 -48 102 -119 149 -306 202 -279 80
-463 97 -865 83z m540 -50 c173 -26 369 -78 463 -123 74 -36 114 -73 144 -136
21 -43 23 -62 23 -202 0 -169 -12 -246 -67 -425 -36 -120 -49 -145 -101 -208
-46 -54 -133 -101 -219 -118 -29 -5 -174 -15 -323 -20 -148 -6 -292 -13 -320
-17 -94 -13 -332 6 -430 34 -181 51 -206 84 -237 313 -9 65 -9 106 1 175 44
326 44 329 107 481 47 115 63 137 132 183 71 47 100 62 143 72 49 12 590 5
684 -9z"/>
<path d="M1762 4479 c-9 -17 -31 -55 -48 -84 -17 -29 -53 -102 -79 -163 -40
-93 -53 -113 -78 -123 -29 -12 -29 -14 -23 -66 5 -41 1 -71 -18 -131 -37 -120
-62 -270 -47 -285 17 -17 26 1 40 86 28 166 61 277 83 277 14 0 78 62 78 76 0
8 -7 17 -15 20 -38 15 -11 99 97 298 47 87 59 126 38 126 -6 0 -19 -14 -28
-31z"/>
<path d="M2277 4483 c-4 -3 -7 -31 -7 -61 0 -50 -3 -57 -36 -88 -30 -27 -35
-37 -30 -58 4 -16 16 -28 31 -32 22 -5 24 -10 20 -43 -19 -154 -22 -419 -4
-452 23 -44 31 -6 25 115 -9 158 13 356 43 397 25 33 26 52 6 69 -11 9 -15 33
-15 86 0 55 -3 74 -13 74 -8 0 -17 -3 -20 -7z"/>
<path d="M2470 4380 c0 -21 4 -49 9 -62 21 -51 41 -136 44 -188 3 -44 7 -55
20 -54 10 1 17 -1 17 -5 0 -12 -19 -36 -30 -37 -5 -1 -13 -2 -16 -3 -4 0 2
-13 11 -28 16 -24 39 -97 65 -208 27 -114 49 -180 60 -183 9 -3 11 5 8 29 -7
42 -35 162 -50 209 -27 84 -36 151 -26 191 9 33 8 42 -5 52 -9 7 -21 37 -26
67 -5 30 -18 89 -29 130 -11 41 -23 87 -26 103 -9 40 -26 33 -26 -13z"/>
<path d="M1890 4399 c0 -6 11 -29 24 -52 14 -23 30 -73 37 -112 12 -70 25 -99
39 -90 16 10 55 -107 64 -195 7 -61 43 -223 57 -257 4 -13 14 -23 20 -23 13 0
10 24 -20 135 -12 43 -25 116 -30 160 -6 45 -19 106 -30 136 -27 69 -28 127
-4 125 28 -2 28 39 1 58 -17 12 -24 13 -27 4 -2 -7 -12 -23 -21 -35 -17 -22
-17 -22 -22 22 -6 47 -55 135 -75 135 -7 0 -13 -5 -13 -11z"/>
<path d="M1770 3932 c0 -10 20 -45 43 -76 30 -41 42 -66 39 -81 -3 -16 2 -27
18 -35 27 -14 60 -68 60 -98 0 -17 5 -22 18 -20 21 5 20 47 -4 101 -14 31 -15
41 -4 61 15 30 6 46 -26 46 -18 0 -36 16 -71 60 -47 60 -73 75 -73 42z"/>
<path d="M2343 3653 c-42 -41 -63 -69 -68 -93 -4 -19 -18 -56 -31 -82 -28 -56
-29 -58 -9 -58 8 0 27 24 42 53 16 28 35 52 43 52 8 0 18 17 25 43 5 24 25 61
43 82 31 38 40 60 24 60 -5 0 -36 -26 -69 -57z"/>
<path d="M1775 2723 c-129 -21 -324 -66 -375 -87 -93 -38 -124 -66 -176 -162
-70 -128 -77 -179 -72 -519 5 -330 10 -353 90 -440 88 -97 219 -148 421 -164
186 -16 282 -14 404 9 59 11 122 22 138 25 60 10 161 56 194 88 19 17 51 46
72 62 48 40 145 155 185 222 54 89 89 224 104 394 14 153 -10 223 -111 330
-56 58 -110 94 -234 157 -160 80 -181 84 -410 87 -110 2 -213 1 -230 -2z m330
-33 c123 -12 198 -36 340 -109 125 -64 223 -151 264 -235 23 -47 24 -56 18
-177 -7 -142 -37 -270 -87 -368 -68 -135 -253 -318 -361 -356 -24 -9 -100 -28
-169 -42 -105 -22 -150 -26 -280 -25 -199 1 -311 19 -422 67 -108 46 -177 112
-204 196 -22 70 -33 521 -14 639 14 89 65 200 118 255 44 45 129 84 197 92 28
3 64 11 80 18 25 11 87 23 255 48 49 8 167 6 265 -3z"/>
<path d="M2141 2521 c-10 -6 -12 -30 -10 -95 3 -53 0 -85 -6 -83 -5 2 -12 14
-15 27 -8 34 -27 35 -32 2 -6 -42 0 -51 38 -58 28 -5 34 -10 34 -33 0 -14 9
-82 19 -151 11 -69 25 -164 32 -212 12 -86 22 -118 34 -106 6 6 -3 91 -35 318
-29 203 -29 204 -2 208 31 5 28 30 -5 34 -22 2 -29 10 -35 38 -4 19 -5 54 -2
78 6 46 6 46 -15 33z"/>
<path d="M1527 2423 c-12 -19 -67 -334 -67 -379 0 -15 -10 -38 -22 -51 -20
-21 -20 -25 -7 -60 11 -29 13 -58 8 -118 -4 -44 -11 -137 -15 -207 -6 -113 -5
-128 9 -128 23 0 25 16 33 210 7 183 14 220 38 220 9 0 20 9 26 20 12 22 -1
56 -28 76 -13 10 -13 25 2 130 10 65 24 144 32 175 16 64 18 119 5 119 -6 0
-12 -3 -14 -7z"/>
<path d="M1750 2361 c0 -11 16 -38 35 -61 31 -38 35 -47 28 -79 -15 -78 -12
-85 36 -91 50 -6 38 11 169 -240 77 -147 98 -180 118 -180 20 0 17 33 -5 61
-10 13 -37 58 -59 99 -22 41 -65 122 -96 179 -31 58 -56 108 -56 113 0 5 9 26
20 48 11 22 20 51 20 66 0 23 -3 25 -22 19 -67 -21 -83 -18 -113 22 -47 62
-75 78 -75 44z"/>
<path d="M2539 2358 c-19 -16 -54 -106 -69 -178 -6 -30 -19 -83 -27 -118 -9
-35 -13 -66 -9 -69 14 -14 28 17 40 88 21 116 46 200 73 246 25 42 21 55 -8
31z"/>
<path d="M1620 2131 c0 -20 31 -78 59 -109 25 -28 28 -38 24 -72 -5 -36 -3
-40 16 -40 18 0 20 3 11 19 -14 27 -13 41 5 41 8 0 15 -9 15 -20 0 -10 8 -24
19 -29 10 -6 41 -38 67 -71 44 -54 74 -75 74 -51 0 14 -71 114 -103 144 -28
26 -29 29 -13 46 30 34 12 58 -20 26 -10 -9 -21 -12 -30 -7 -17 10 -94 110
-94 123 0 5 -7 9 -15 9 -8 0 -15 -4 -15 -9z"/>
<path d="M2396 1958 c-18 -25 -21 -74 -6 -83 6 -4 10 7 10 24 0 19 7 35 19 43
10 6 17 18 14 25 -7 19 -20 16 -37 -9z"/>
<path d="M2456 1963 c-11 -11 -6 -23 9 -23 8 0 15 4 15 9 0 13 -16 22 -24 14z"/>
<path d="M2453 1913 c-17 -6 -17 -33 0 -33 14 0 37 20 37 32 0 9 -18 9 -37 1z"/>
<path d="M1710 1803 c0 -9 16 -44 35 -79 29 -52 35 -72 35 -123 0 -48 3 -61
15 -61 9 0 18 7 21 15 11 28 31 15 65 -40 33 -53 51 -66 64 -45 3 5 -10 40
-30 76 -19 37 -35 80 -35 95 0 22 -8 32 -38 49 -22 12 -47 36 -57 53 -21 38
-55 77 -67 77 -4 0 -8 -7 -8 -17z"/>
<path d="M2371 1778 c-22 -55 -51 -168 -57 -222 -5 -47 -4 -58 7 -54 9 3 16
31 22 84 4 43 12 88 17 99 6 11 14 34 19 50 5 17 12 38 16 48 4 10 3 17 -4 17
-6 0 -15 -10 -20 -22z"/>
</g>
</svg>
