<?xml version="1.0" standalone="no"?>
<!DOCTYPE svg PUBLIC "-//W3C//DTD SVG 20010904//EN"
 "http://www.w3.org/TR/2001/REC-SVG-20010904/DTD/svg10.dtd">
<svg version="1.0" xmlns="http://www.w3.org/2000/svg"
 width="510.000000pt" height="551.000000pt" viewBox="0 0 510.000000 551.000000"
 preserveAspectRatio="xMidYMid meet">
<metadata>
Created by potrace 1.16, written by Peter Selinger 2001-2019
</metadata>
<g transform="translate(0.000000,551.000000) scale(0.100000,-0.100000)"
fill="#000000" stroke="none">
<path d="M1395 4670 c-383 -5 -391 -5 -433 -28 -34 -18 -49 -35 -68 -75 -13
-29 -24 -58 -24 -66 0 -25 -35 -121 -44 -121 -5 0 -6 26 -2 58 4 31 8 66 9 77
4 37 -28 23 -33 -15 -9 -55 -1 -508 11 -685 14 -192 13 -1006 -1 -1255 -32
-548 -30 -1040 5 -1555 20 -287 25 -326 39 -347 29 -42 159 -137 236 -173 l85
-40 345 -2 c190 0 377 -6 415 -12 39 -6 156 -11 260 -11 105 0 300 -5 435 -10
233 -10 273 -9 543 16 43 4 67 2 67 -4 0 -15 -34 -24 -64 -16 -19 4 -26 2 -26
-9 0 -30 60 -36 125 -12 26 9 81 14 157 15 66 0 128 5 142 12 27 12 33 27 61
153 9 39 20 86 25 105 5 19 14 134 20 255 6 121 16 290 23 375 8 112 11 356 7
880 -7 954 -5 1070 13 1166 22 110 16 941 -6 1021 -15 51 -88 166 -136 212
-39 37 -120 69 -222 86 -81 14 -189 16 -833 13 -408 -2 -916 -5 -1131 -8z
m1979 -39 c90 -19 159 -48 188 -79 49 -53 116 -168 128 -219 8 -36 11 -142 8
-345 -1 -161 1 -336 6 -388 7 -74 5 -117 -8 -195 -25 -158 -34 -344 -25 -555
11 -280 10 -1319 -1 -1425 -6 -49 -14 -214 -20 -365 -10 -272 -17 -329 -64
-525 -24 -101 -15 -95 -127 -95 -91 0 -99 2 -99 19 0 26 -17 36 -36 20 -26
-21 -635 -52 -647 -32 -5 9 56 121 72 133 4 3 73 82 154 177 81 94 151 175
157 178 14 9 12 35 -2 35 -7 -1 -29 -21 -48 -44 -19 -24 -93 -109 -163 -188
-125 -141 -189 -226 -202 -268 -6 -20 -12 -21 -274 -20 -147 1 -273 5 -280 9
-10 6 -9 21 2 67 9 32 18 79 22 104 17 116 78 296 117 345 18 24 17 45 -2 45
-13 0 -72 -118 -98 -195 -24 -72 -72 -295 -72 -338 l0 -30 -77 8 c-43 4 -242
10 -443 14 l-365 6 -69 33 c-69 32 -198 128 -215 160 -50 95 -88 1070 -61
1592 5 96 14 418 20 715 9 459 8 574 -5 764 -17 259 -20 487 -5 496 5 3 10 28
10 56 0 27 4 57 10 67 5 9 21 55 35 102 30 101 44 125 93 147 33 16 91 18 544
20 l506 3 -30 -32 c-56 -60 -290 -585 -328 -734 -24 -98 -27 -214 -5 -214 12
0 15 14 15 64 0 120 40 239 200 591 131 291 150 313 278 324 147 12 1142 5
1206 -8z"/>
<path d="M2547 4503 c-12 -11 -8 -19 16 -30 69 -32 365 -298 435 -393 47 -63
102 -165 102 -188 0 -14 16 -16 24 -3 11 17 -47 138 -101 207 -69 92 -288 292
-426 392 -34 24 -40 26 -50 15z"/>
<path d="M2073 4463 c3 -16 13 -62 21 -103 9 -41 23 -118 31 -170 20 -122 44
-211 62 -230 13 -13 14 -11 10 20 -2 19 -14 80 -25 135 -12 55 -31 154 -42
220 -12 66 -26 128 -31 138 -15 27 -32 20 -26 -10z"/>
<path d="M2390 4423 c0 -5 30 -53 65 -108 35 -55 78 -123 95 -151 52 -89 90
-104 43 -17 -55 98 -178 282 -190 283 -7 0 -13 -3 -13 -7z"/>
<path d="M2906 3268 c-2 -7 -11 -51 -21 -97 -9 -46 -29 -125 -45 -176 -16 -50
-31 -113 -35 -139 -6 -38 -10 -44 -21 -35 -8 6 -14 16 -14 21 0 6 -26 56 -57
112 -32 55 -62 110 -68 120 -13 25 -33 32 -41 13 -5 -13 23 -66 111 -208 6 -9
23 -40 38 -69 l29 -53 -22 -130 c-12 -72 -28 -147 -35 -166 -7 -20 -20 -79
-29 -131 -9 -52 -28 -145 -42 -207 -26 -112 -25 -145 1 -123 14 11 36 99 80
320 14 69 32 159 41 200 8 41 19 94 23 118 9 51 10 52 16 52 9 0 192 -364 220
-437 15 -37 30 -77 35 -88 5 -11 18 -45 28 -75 14 -41 23 -55 38 -55 12 0 19
7 18 18 0 9 -1 34 -2 56 -2 28 -7 40 -20 43 -11 3 -35 47 -67 119 -27 63 -90
191 -138 284 -49 94 -91 186 -94 205 -4 33 24 164 61 290 17 56 46 195 46 218
0 6 -7 12 -15 12 -9 0 -17 -6 -19 -12z"/>
<path d="M1489 3243 c-26 -68 -48 -133 -64 -193 -10 -36 -23 -85 -30 -110 -7
-25 -23 -83 -35 -130 -35 -132 -35 -132 -55 -82 -10 24 -40 84 -66 135 -27 51
-63 120 -79 155 -17 34 -35 62 -41 62 -25 0 -17 -35 24 -112 24 -46 74 -139
109 -208 l65 -125 -28 -165 c-15 -91 -39 -208 -53 -261 -31 -120 -42 -214 -27
-223 6 -4 15 3 20 16 12 31 65 282 93 440 12 69 26 124 30 122 4 -3 26 -44 49
-92 23 -48 45 -95 50 -104 37 -73 124 -310 154 -418 13 -47 26 -84 29 -82 3 1
11 2 16 2 17 0 0 111 -25 165 -13 28 -40 91 -59 140 -74 192 -116 288 -155
359 -44 78 -52 138 -31 216 61 226 96 350 108 380 32 82 41 140 22 140 -6 0
-15 -12 -21 -27z"/>
<path d="M2046 3212 c-2 -4 -12 -50 -21 -102 -9 -52 -31 -156 -49 -230 l-33
-134 -45 84 c-24 47 -66 123 -93 170 -26 47 -54 100 -62 118 -8 21 -20 32 -33
32 -11 0 -20 -4 -20 -10 0 -5 39 -78 87 -162 173 -305 164 -278 133 -423 -11
-49 -29 -144 -40 -210 -12 -66 -28 -137 -37 -158 -21 -47 -24 -178 -6 -184 19
-7 28 27 57 217 15 96 34 204 42 240 31 135 38 160 44 160 4 0 14 -17 23 -37
8 -21 38 -89 66 -150 28 -62 65 -154 82 -203 46 -139 90 -249 101 -256 26 -16
25 17 -2 86 -16 41 -51 136 -79 210 -27 74 -81 201 -119 283 l-70 147 19 83
c11 45 28 120 39 167 39 163 53 239 47 254 -7 17 -23 21 -31 8z"/>
<path d="M3487 2915 c-9 -20 -17 -45 -17 -55 0 -27 -16 -25 -36 5 -17 25 -64
36 -64 14 0 -7 17 -27 38 -44 l37 -33 -28 -83 c-30 -92 -34 -119 -14 -119 6 0
27 40 45 90 l34 89 70 -82 c75 -87 98 -103 98 -67 0 13 -30 52 -75 100 -41 43
-75 85 -75 93 0 8 6 30 14 48 28 68 29 79 9 79 -12 0 -26 -13 -36 -35z"/>
<path d="M3162 2918 c-7 -7 -12 -16 -12 -20 0 -5 -7 -25 -15 -44 l-15 -36 -42
31 c-41 31 -78 40 -78 21 0 -5 25 -26 55 -46 30 -20 55 -40 55 -43 0 -12 -32
-96 -40 -106 -4 -5 -11 -25 -15 -43 -6 -30 -5 -33 12 -30 12 2 27 27 47 78 16
41 31 77 32 79 5 6 87 -70 109 -101 11 -15 26 -28 33 -28 30 0 7 43 -58 108
l-70 70 21 47 c26 59 15 97 -19 63z"/>
<path d="M2364 2824 c-8 -19 -17 -48 -21 -64 l-5 -29 -47 39 c-53 45 -71 50
-71 20 0 -11 3 -20 8 -20 4 0 27 -17 52 -39 l45 -39 -19 -53 c-11 -30 -28 -71
-38 -93 -15 -30 -17 -40 -7 -46 23 -15 35 0 59 68 12 37 27 72 32 77 7 7 28
-10 62 -47 28 -32 57 -58 64 -58 26 0 10 30 -48 89 -33 34 -60 70 -60 79 0 9
11 41 25 70 30 65 31 82 4 82 -14 0 -25 -11 -35 -36z"/>
<path d="M1539 1023 c-8 -197 94 -371 263 -451 76 -37 74 -36 81 -18 4 11 -18
26 -76 55 -92 44 -142 90 -185 171 -41 76 -70 202 -55 241 10 26 9 29 -8 29
-14 0 -19 -7 -20 -27z"/>
<path d="M2545 853 c-49 -49 -83 -108 -119 -204 -38 -100 -43 -129 -23 -129 6
0 23 33 36 73 36 110 68 171 116 225 25 28 45 53 45 56 0 15 -30 3 -55 -21z"/>
</g>
</svg>
