<?xml version="1.0" standalone="no"?>
<!DOCTYPE svg PUBLIC "-//W3C//DTD SVG 20010904//EN"
 "http://www.w3.org/TR/2001/REC-SVG-20010904/DTD/svg10.dtd">
<svg version="1.0" xmlns="http://www.w3.org/2000/svg"
 width="510.000000pt" height="551.000000pt" viewBox="0 0 510.000000 551.000000"
 preserveAspectRatio="xMidYMid meet">
<metadata>
Created by potrace 1.16, written by Peter Selinger 2001-2019
</metadata>
<g transform="translate(0.000000,551.000000) scale(0.100000,-0.100000)"
fill="#000000" stroke="none">
<path d="M2225 4619 c-209 -3 -555 -7 -770 -8 -438 -2 -598 -11 -652 -38 -29
-15 -45 -36 -85 -113 l-49 -96 -10 -144 c-7 -86 -12 -556 -14 -1145 -1 -637
-7 -1089 -15 -1245 -15 -294 -6 -890 15 -1055 14 -102 17 -111 53 -154 21 -25
73 -69 115 -98 63 -42 92 -55 171 -73 87 -20 113 -22 328 -17 128 3 312 10
408 16 96 6 256 15 355 21 99 6 205 16 235 22 30 5 156 14 280 20 278 12 293
13 410 3 114 -9 225 5 252 33 34 33 57 176 68 421 6 124 14 300 19 391 10 198
-3 1390 -19 1790 -8 198 -9 395 -3 647 5 199 6 395 3 435 -8 89 -45 191 -103
278 -37 58 -48 67 -94 82 -121 40 -135 41 -898 27z m755 -28 c149 -20 189 -44
237 -143 71 -145 67 -103 68 -733 0 -313 6 -878 13 -1255 17 -943 17 -915 -2
-1295 -17 -356 -36 -524 -67 -573 -14 -25 -26 -31 -71 -38 -29 -4 -93 -6 -143
-4 -92 4 -190 3 -442 -2 -79 -2 -143 1 -143 6 0 5 22 32 50 60 27 28 75 85
107 127 68 90 189 238 267 329 31 36 56 69 56 73 0 37 -102 -73 -290 -314
-114 -146 -192 -228 -257 -272 -37 -26 -55 -30 -195 -42 -84 -8 -239 -17 -343
-19 -105 -3 -225 -10 -269 -15 -43 -6 -171 -11 -285 -11 -176 -1 -217 2 -284
19 -130 34 -239 108 -283 192 -47 92 -64 645 -39 1269 13 337 16 541 11 980
-8 661 5 1292 28 1391 15 62 53 149 86 195 24 33 50 42 159 53 121 13 771 15
771 3 0 -5 -11 -19 -25 -32 -23 -22 -196 -276 -293 -430 -109 -173 -177 -354
-170 -449 3 -46 23 -57 24 -13 5 166 80 325 322 682 135 199 177 250 207 250
19 0 25 -5 25 -22 1 -22 1 -22 12 -3 6 11 13 22 15 25 2 2 181 7 396 10 625
10 678 10 747 1z"/>
<path d="M1874 4473 c3 -32 8 -125 11 -208 6 -156 23 -295 37 -295 11 0 10 42
-2 153 -5 51 -13 163 -16 250 -5 127 -9 157 -21 157 -11 0 -13 -12 -9 -57z"/>
<path d="M2257 4523 c-4 -3 -7 -15 -7 -26 0 -17 5 -18 34 -13 72 14 128 -31
321 -254 88 -102 166 -213 208 -297 15 -28 31 -54 36 -57 37 -23 -4 72 -87
198 -86 133 -330 399 -392 428 -42 19 -104 31 -113 21z"/>
<path d="M2170 4457 c0 -8 9 -22 20 -32 28 -26 105 -160 156 -273 44 -98 72
-133 59 -73 -8 37 -70 166 -127 266 -56 97 -108 151 -108 112z"/>
<path d="M1105 3590 c-4 -6 -2 -25 4 -43 5 -17 12 -63 16 -102 3 -38 12 -115
20 -170 20 -141 24 -195 15 -195 -10 0 -139 93 -220 159 -85 69 -119 87 -134
71 -8 -9 -6 -15 8 -24 10 -6 33 -22 51 -36 19 -14 97 -72 174 -129 l140 -103
6 -57 c3 -31 12 -101 20 -156 7 -55 21 -162 31 -237 13 -95 23 -138 31 -138
17 0 17 60 -2 174 -24 153 -45 310 -45 344 0 38 12 42 28 8 6 -13 42 -49 79
-79 38 -30 109 -98 158 -152 50 -54 109 -118 132 -142 23 -25 43 -54 45 -66 5
-35 28 -32 28 3 0 26 -13 46 -68 104 -38 39 -88 93 -113 120 -54 61 -78 84
-201 194 -110 97 -105 85 -127 292 -25 222 -41 352 -47 361 -7 12 -21 11 -29
-1z"/>
<path d="M1956 3573 c-18 -47 -36 -178 -37 -268 0 -55 -4 -120 -7 -145 l-7
-44 -19 29 c-44 69 -135 184 -188 240 -46 46 -61 56 -70 47 -10 -10 2 -27 53
-80 68 -69 129 -146 193 -243 l37 -56 -1 -266 c0 -150 -4 -278 -10 -292 -14
-37 -13 -45 9 -45 24 0 29 55 33 347 2 116 6 209 10 207 4 -3 20 -28 37 -58
17 -29 57 -86 89 -127 81 -104 168 -230 176 -257 4 -12 14 -22 22 -22 30 0 3
62 -70 159 -39 53 -78 107 -87 121 -9 14 -26 36 -38 50 -12 13 -47 61 -78 107
l-56 83 2 143 c1 78 8 187 16 242 9 55 16 109 18 119 3 25 -19 32 -27 9z"/>
<path d="M2566 3391 c-9 -39 -16 -79 -16 -90 0 -32 -16 -34 -59 -6 -23 14 -47
25 -56 25 -33 0 -12 -28 45 -60 l59 -33 -5 -76 c-3 -42 -7 -84 -9 -94 -5 -25
4 -47 20 -47 9 0 14 24 16 84 2 46 7 88 12 92 4 4 41 -9 82 -29 76 -38 100
-44 109 -28 4 5 -37 30 -89 56 -52 26 -98 51 -101 56 -3 5 4 52 15 104 25 113
25 115 7 115 -10 0 -20 -24 -30 -69z"/>
<path d="M2606 2758 c-3 -7 -7 -53 -11 -103 -3 -49 -9 -93 -11 -97 -3 -4 -27
-8 -54 -8 -27 0 -51 -4 -54 -9 -11 -18 23 -31 70 -29 l49 3 3 -102 c2 -83 6
-103 17 -103 12 0 15 19 15 100 0 82 3 102 16 107 29 11 197 -14 209 -31 7 -9
17 -16 24 -16 17 0 13 25 -7 50 -16 19 -31 22 -131 28 l-114 7 2 80 c2 44 4
91 5 104 1 26 -21 41 -28 19z"/>
<path d="M1747 2287 c-27 -42 -48 -100 -73 -202 -13 -55 -28 -116 -34 -135 -5
-19 -12 -47 -15 -62 -6 -31 -20 -37 -29 -13 -8 22 -95 155 -124 190 -14 17
-31 45 -39 63 -8 18 -19 31 -26 29 -22 -8 -8 -48 41 -114 87 -119 152 -228
152 -254 0 -15 -7 -49 -15 -75 -8 -27 -30 -107 -50 -179 -20 -71 -41 -147 -47
-168 -9 -28 -9 -40 0 -49 19 -19 30 0 47 77 8 39 22 95 31 125 9 30 20 73 26
95 5 22 16 54 24 72 8 17 14 38 14 47 0 30 15 15 43 -42 15 -31 32 -64 37 -72
18 -27 154 -284 174 -328 20 -44 33 -52 42 -28 6 15 -85 194 -188 371 -86 148
-98 189 -77 270 6 22 17 65 24 95 36 142 44 169 69 224 14 32 26 65 26 72 0
21 -16 17 -33 -9z"/>
<path d="M2247 2184 c-3 -4 -4 -55 0 -115 l6 -108 -39 7 c-66 11 -99 9 -99 -8
0 -11 19 -18 70 -25 l70 -10 3 -118 c2 -94 5 -117 17 -117 11 0 15 23 17 113
l3 112 95 0 c52 0 103 -4 112 -9 13 -6 20 -3 24 8 4 9 3 20 -1 24 -3 4 -59 9
-123 12 l-117 5 -6 108 c-6 100 -16 137 -32 121z"/>
<path d="M1319 1123 c-5 -27 5 -128 17 -183 57 -256 224 -450 359 -416 41 10
29 24 -32 36 -32 7 -75 21 -95 31 -46 23 -112 104 -146 179 -13 30 -29 63 -34
73 -15 30 -48 197 -48 244 0 24 -4 43 -10 43 -5 0 -11 -3 -11 -7z"/>
<path d="M2022 1109 c-6 -13 -17 -42 -25 -64 -8 -22 -22 -58 -30 -80 -44 -113
-109 -373 -96 -381 16 -10 26 5 33 46 10 66 71 277 110 384 24 65 33 103 27
109 -7 7 -13 2 -19 -14z"/>
<path d="M2387 1016 c-52 -68 -106 -153 -179 -283 -16 -26 -33 -56 -40 -65 -7
-9 -9 -20 -5 -25 14 -14 42 13 71 68 65 125 119 213 176 288 64 85 67 91 47
91 -7 0 -38 -33 -70 -74z"/>
<path d="M4820 2744 c0 -8 5 -12 10 -9 6 3 10 10 10 16 0 5 -4 9 -10 9 -5 0
-10 -7 -10 -16z"/>
</g>
</svg>
