<?xml version="1.0" standalone="no"?>
<!DOCTYPE svg PUBLIC "-//W3C//DTD SVG 20010904//EN"
 "http://www.w3.org/TR/2001/REC-SVG-20010904/DTD/svg10.dtd">
<svg version="1.0" xmlns="http://www.w3.org/2000/svg"
 width="503.000000pt" height="551.000000pt" viewBox="0 0 503.000000 551.000000"
 preserveAspectRatio="xMidYMid meet">
<metadata>
Created by potrace 1.16, written by Peter Selinger 2001-2019
</metadata>
<g transform="translate(0.000000,551.000000) scale(0.100000,-0.100000)"
fill="#000000" stroke="none">
<path d="M3120 4755 c-69 -8 -232 -21 -363 -29 -131 -9 -241 -18 -245 -20 -4
-2 -147 -10 -317 -16 -226 -8 -364 -9 -510 -1 -264 14 -449 15 -473 2 -25 -13
-60 -89 -75 -158 -6 -29 -15 -53 -19 -53 -4 0 -8 40 -8 89 0 50 -4 92 -8 95
-20 12 -28 -15 -28 -89 0 -235 -25 -1391 -33 -1515 -5 -80 -11 -554 -12 -1055
-2 -704 0 -928 10 -990 18 -115 46 -227 65 -261 40 -75 217 -234 285 -255 24
-8 205 -15 551 -20 283 -4 578 -13 655 -19 77 -7 318 -13 536 -15 218 -1 416
-5 441 -9 52 -8 74 8 42 31 -15 11 -80 13 -336 11 -237 -2 -320 0 -329 9 -15
15 32 70 265 312 165 172 244 267 232 278 -4 4 -34 -24 -68 -63 -34 -38 -139
-148 -233 -244 -94 -96 -188 -197 -210 -223 -21 -26 -47 -52 -57 -58 -18 -10
-154 -3 -468 22 -131 11 -149 15 -185 39 -33 22 -244 125 -380 185 -16 7 -91
41 -167 74 -130 58 -168 70 -168 53 0 -4 89 -47 198 -97 263 -119 472 -223
472 -235 0 -20 -682 -15 -757 6 -94 26 -270 188 -296 272 -26 84 -47 195 -56
302 -12 131 -4 1696 10 1995 5 121 12 441 15 710 6 445 13 556 30 487 12 -43
22 -21 17 36 -11 118 52 315 105 329 13 3 186 0 382 -7 197 -7 422 -10 499 -7
78 3 141 4 141 1 0 -2 -37 -51 -82 -109 -85 -106 -203 -268 -249 -340 -14 -22
-44 -70 -67 -106 -62 -96 -113 -222 -119 -291 -3 -32 -9 -58 -14 -58 -4 0 -16
16 -25 35 -20 42 -33 44 -63 8 -45 -51 -198 -269 -283 -403 -48 -74 -109 -170
-137 -213 -28 -43 -51 -87 -51 -98 0 -35 25 -20 52 34 16 28 66 110 113 181
47 71 85 131 85 133 0 13 240 343 249 343 33 0 160 -470 144 -530 -3 -11 3
-32 12 -47 10 -15 21 -52 24 -82 4 -41 10 -56 21 -56 21 0 16 129 -9 215 -10
36 -26 101 -36 145 -10 44 -28 122 -41 173 -27 103 -29 156 -13 234 23 108
125 295 264 484 33 46 84 116 114 157 29 41 79 102 110 134 l56 60 240 17
c256 18 404 30 580 47 61 6 202 9 315 7 200 -3 206 -4 267 -32 73 -34 102 -63
133 -136 12 -30 38 -87 56 -126 29 -59 37 -94 54 -225 19 -148 20 -175 8 -654
-9 -399 -9 -581 1 -900 10 -304 11 -437 2 -553 -6 -85 -11 -250 -11 -368 0
-207 -1 -214 -20 -214 -17 0 -20 -7 -20 -48 0 -27 -9 -73 -19 -103 -28 -79
-74 -179 -83 -179 -13 0 -26 33 -42 110 -23 112 -35 140 -58 140 -16 0 -19 -5
-14 -22 3 -13 13 -52 22 -88 28 -118 48 -185 58 -192 12 -8 36 1 62 24 18 16
36 52 85 176 5 13 14 20 19 17 17 -11 3 -324 -20 -457 -41 -234 -68 -307 -128
-337 -56 -28 -98 -35 -199 -32 -63 2 -93 -1 -93 -8 0 -6 3 -11 8 -12 4 0 32
-2 62 -5 30 -3 68 -9 84 -14 23 -8 44 -5 95 12 87 28 117 50 139 101 38 85 78
280 93 450 8 93 13 1705 7 2112 -1 66 4 294 10 507 12 373 12 392 -8 549 -20
148 -25 169 -61 241 -22 43 -49 103 -60 134 -17 44 -31 63 -74 95 -30 22 -76
48 -102 56 -68 22 -426 26 -593 8z"/>
<path d="M3030 4632 c0 -18 79 -83 145 -118 183 -100 300 -223 392 -414 47
-98 63 -118 63 -82 0 26 -72 172 -120 243 -72 106 -195 214 -323 284 -35 19
-76 49 -90 65 -25 27 -67 41 -67 22z"/>
<path d="M2450 4595 c0 -8 12 -18 28 -21 79 -19 145 -87 189 -196 23 -55 58
-172 69 -222 5 -27 13 -31 20 -12 4 10 2 27 -4 39 -6 12 -13 44 -17 70 -8 58
-59 191 -90 232 -50 67 -73 86 -123 105 -62 24 -72 25 -72 5z"/>
<path d="M2719 4599 c-23 -14 3 -31 37 -26 117 19 292 -98 358 -238 30 -63 50
-148 41 -174 -3 -11 -2 -28 4 -38 5 -10 12 -26 15 -36 13 -40 25 -4 20 56 -20
201 -115 347 -278 427 -63 31 -168 47 -197 29z"/>
<path d="M2374 4413 c4 -27 11 -120 16 -208 9 -145 18 -192 33 -168 4 6 -17
402 -22 421 -1 1 -8 2 -17 2 -14 0 -16 -7 -10 -47z"/>
<path d="M3127 4123 c-4 -3 -7 -15 -7 -25 0 -26 24 -17 28 10 3 21 -8 29 -21
15z"/>
<path d="M3122 4013 c-16 -23 -90 -173 -122 -248 -4 -11 -22 -49 -38 -85 -17
-36 -52 -119 -77 -185 -46 -116 -147 -330 -166 -350 -14 -14 -11 -65 4 -64 15
0 122 219 177 363 41 110 104 252 188 426 65 137 66 125 12 -245 -32 -217 -41
-302 -50 -485 -5 -96 -12 -188 -16 -203 -6 -24 -4 -28 11 -25 25 4 33 39 40
176 9 173 24 345 40 447 59 378 62 409 49 474 -8 38 -26 40 -52 4z"/>
<path d="M3751 4007 c-46 -75 -84 -182 -85 -237 -1 -43 2 -55 14 -55 9 0 16
11 18 30 7 63 70 235 87 235 14 0 79 -180 90 -250 4 -25 12 -48 18 -52 69 -43
-10 253 -91 345 -21 24 -27 22 -51 -16z"/>
<path d="M2274 3907 c-32 -52 -102 -211 -123 -277 -14 -46 -35 -121 -54 -195
-9 -33 -28 -103 -42 -155 -41 -144 -45 -162 -45 -202 0 -31 4 -38 20 -38 17 0
20 7 20 48 0 27 6 68 14 93 7 24 21 72 30 107 59 228 66 252 95 347 26 82 101
237 117 242 17 6 24 -32 24 -132 0 -49 5 -175 11 -280 6 -104 14 -248 17 -320
6 -112 9 -130 25 -133 21 -4 22 22 7 218 -6 74 -14 252 -19 396 -7 246 -9 263
-30 298 -12 20 -26 36 -29 36 -4 0 -21 -24 -38 -53z"/>
<path d="M3371 3865 c-17 -30 -31 -58 -31 -61 0 -4 -16 -32 -35 -64 -35 -58
-44 -90 -25 -90 12 0 71 89 102 156 12 27 24 51 26 53 10 15 93 -137 116 -212
8 -24 30 -16 34 12 3 21 -5 39 -72 166 -27 50 -63 95 -77 95 -4 0 -21 -25 -38
-55z"/>
<path d="M2630 3846 c-52 -68 -110 -198 -110 -248 0 -21 4 -38 8 -38 17 0 43
38 53 76 12 48 91 213 102 214 4 0 10 -14 14 -30 3 -17 13 -35 23 -40 19 -10
80 -120 80 -144 0 -9 6 -16 14 -16 23 0 24 47 2 93 -29 61 -119 187 -132 187
-6 0 -30 -25 -54 -54z"/>
<path d="M3165 2080 c-3 -5 1 -33 10 -62 27 -87 51 -919 26 -893 -5 6 -27 71
-51 145 -23 74 -54 162 -70 195 -15 33 -36 83 -46 110 -9 28 -21 55 -25 60 -7
10 -15 39 -74 275 -28 112 -52 165 -76 165 -8 0 -15 -10 -17 -22 -2 -13 1 -23
6 -23 14 0 18 -14 68 -210 31 -124 63 -219 109 -326 36 -83 65 -157 65 -165 0
-8 16 -59 36 -114 20 -55 45 -126 56 -157 14 -41 25 -58 37 -58 27 0 31 95 21
560 -7 367 -11 425 -36 518 -4 14 -30 16 -39 2z"/>
<path d="M2326 1958 c-2 -7 -9 -96 -15 -198 -12 -212 -55 -535 -78 -597 -9
-24 -33 -14 -33 15 0 15 -14 74 -30 132 -17 58 -30 118 -30 133 0 16 -4 36
-10 46 -5 10 -21 96 -35 190 -33 226 -42 261 -67 261 -18 0 -19 -5 -13 -42 3
-24 10 -56 15 -73 8 -28 28 -146 49 -290 9 -60 52 -256 77 -350 7 -27 15 -63
19 -78 14 -67 71 -27 100 71 30 102 97 736 82 776 -8 19 -26 21 -31 4z"/>
<path d="M1782 1848 c-7 -7 -12 -20 -12 -29 0 -10 -21 -73 -46 -141 -26 -68
-57 -159 -69 -203 -47 -168 -106 -315 -127 -315 -12 0 -45 58 -69 120 -51 132
-115 314 -151 430 -25 82 -51 130 -69 130 -24 0 -24 -7 -1 -62 10 -24 54 -146
97 -273 91 -268 116 -330 152 -367 69 -72 92 -33 213 357 17 55 35 109 40 120
6 11 26 65 45 120 29 81 33 101 22 112 -10 10 -15 11 -25 1z"/>
<path d="M2841 1498 c-5 -13 -20 -52 -34 -88 -24 -66 -90 -180 -104 -180 -15
0 -31 15 -51 49 -16 27 -20 45 -15 78 7 49 -13 123 -33 123 -15 0 -38 -65 -36
-99 4 -57 25 -102 68 -150 25 -28 53 -51 61 -51 26 0 76 62 110 136 66 145 79
193 56 201 -7 3 -17 -6 -22 -19z"/>
<path d="M3607 1493 c-3 -4 -8 -24 -12 -43 -16 -84 -90 -243 -109 -237 -6 2
-16 30 -22 63 -22 119 -60 216 -83 212 -19 -4 -17 -51 4 -113 7 -22 21 -69 30
-105 42 -157 56 -168 109 -88 44 65 118 253 114 287 -3 24 -22 39 -31 24z"/>
<path d="M2400 1036 c0 -19 -5 -47 -11 -63 -24 -63 -78 -302 -81 -358 -2 -48
0 -60 12 -60 11 0 16 18 21 75 4 41 25 151 49 243 23 92 39 175 36 183 -10 26
-26 14 -26 -20z"/>
<path d="M2729 843 c-38 -34 -119 -135 -119 -147 0 -3 -13 -28 -30 -56 -28
-48 -40 -100 -22 -100 4 0 18 24 31 53 14 28 37 71 53 95 15 24 28 47 28 53 0
5 30 39 66 74 70 69 64 92 -7 28z"/>
</g>
</svg>
