<?xml version="1.0" standalone="no"?>
<!DOCTYPE svg PUBLIC "-//W3C//DTD SVG 20010904//EN"
 "http://www.w3.org/TR/2001/REC-SVG-20010904/DTD/svg10.dtd">
<svg version="1.0" xmlns="http://www.w3.org/2000/svg"
 width="517.000000pt" height="551.000000pt" viewBox="0 0 517.000000 551.000000"
 preserveAspectRatio="xMidYMid meet">
<metadata>
Created by potrace 1.16, written by Peter Selinger 2001-2019
</metadata>
<g transform="translate(0.000000,551.000000) scale(0.100000,-0.100000)"
fill="#000000" stroke="none">
<path d="M2000 4698 c-186 -9 -475 -34 -565 -49 -136 -24 -220 -42 -254 -56
-43 -18 -87 -57 -107 -96 -17 -32 -34 -27 -34 9 0 34 -17 64 -36 64 -13 0 -15
-8 -7 -52 10 -63 9 -150 -5 -698 -6 -228 -16 -451 -22 -495 -7 -46 -16 -340
-21 -690 -5 -335 -13 -677 -17 -760 -11 -187 3 -1009 17 -1090 22 -117 42
-163 95 -212 95 -87 225 -133 381 -133 55 0 145 -7 200 -16 85 -14 191 -16
719 -15 341 1 642 3 670 6 28 2 156 9 285 15 207 10 235 9 250 -5 23 -20 28
-19 61 7 56 46 154 113 184 128 49 24 56 62 38 210 -15 119 -14 132 6 295 12
93 24 240 27 325 3 85 10 173 16 195 5 22 13 146 16 275 4 183 1 267 -12 380
-25 223 -35 537 -24 775 21 467 29 640 39 855 12 244 7 380 -17 450 -62 183
-172 287 -383 361 l-65 23 -635 1 c-349 0 -709 -3 -800 -7z m1448 -44 c201
-52 326 -159 395 -337 26 -64 27 -76 27 -250 0 -167 -15 -508 -40 -912 -6 -88
-10 -244 -10 -346 l0 -186 -297 -7 c-164 -4 -365 -11 -448 -16 -198 -12 -1735
-11 -1894 1 -83 7 -127 7 -134 0 -31 -31 48 -35 858 -44 634 -7 873 -6 1100 5
160 7 407 13 550 13 l260 0 2 -35 c4 -62 25 -244 30 -265 3 -11 8 -135 10
-275 4 -203 2 -279 -11 -370 -9 -63 -21 -196 -26 -294 -6 -99 -15 -209 -22
-245 -14 -79 -16 -289 -4 -382 10 -77 4 -92 -47 -122 -19 -12 -56 -37 -82 -56
-54 -39 -95 -45 -335 -56 -85 -3 -218 -10 -295 -15 -187 -13 -1282 -12 -1365
0 -36 6 -110 12 -165 15 -167 9 -201 14 -277 41 -146 52 -215 132 -237 275
-15 94 -34 818 -27 1020 3 96 10 224 15 284 5 61 10 335 11 610 0 282 5 528
10 565 6 36 15 234 20 440 9 378 18 594 26 618 2 8 21 -6 49 -35 31 -32 48
-44 56 -36 7 7 -3 23 -32 52 -42 41 -42 41 -35 98 11 93 44 131 139 162 115
38 305 62 702 89 61 5 416 8 790 9 547 0 690 -2 733 -13z"/>
<path d="M2200 4515 c-8 -2 -55 -9 -105 -15 -52 -7 -117 -24 -155 -40 -36 -15
-83 -31 -104 -35 -62 -11 -150 -60 -182 -102 -102 -133 -137 -231 -173 -486
-39 -275 -23 -384 73 -512 75 -99 143 -150 237 -175 41 -11 116 -31 167 -45
188 -50 512 -57 677 -15 80 20 264 106 402 188 130 78 224 213 291 417 11 36
15 83 14 164 -1 132 -11 159 -109 291 -78 105 -126 141 -298 225 -169 83 -212
98 -340 120 -84 14 -362 29 -395 20z m443 -64 c160 -35 404 -153 494 -241 48
-46 133 -168 157 -225 22 -51 22 -223 0 -291 -30 -97 -105 -229 -168 -298 -61
-66 -75 -75 -301 -197 -169 -90 -358 -118 -640 -94 -110 10 -186 22 -245 40
-47 14 -113 34 -148 45 -35 10 -84 34 -109 52 -62 45 -145 156 -166 221 -36
113 -8 468 49 632 49 141 118 231 212 277 61 30 74 33 153 32 64 -1 99 -7 134
-23 52 -23 75 -26 75 -11 0 13 -64 39 -124 51 -87 16 -78 26 41 44 135 21 460
13 586 -14z"/>
<path d="M2220 4336 c0 -8 25 -48 55 -88 63 -83 134 -218 189 -358 21 -52 41
-99 45 -105 4 -5 13 -30 20 -55 15 -51 27 -70 47 -70 21 0 17 36 -10 99 -14
31 -37 88 -52 126 -92 241 -230 465 -285 465 -5 0 -9 -6 -9 -14z"/>
<path d="M2780 4264 c-6 -14 -17 -49 -26 -77 -9 -29 -27 -85 -40 -125 -28 -85
-30 -108 -8 -116 30 -11 37 -6 31 23 -4 19 8 72 38 161 24 73 41 139 38 146
-8 22 -23 16 -33 -12z"/>
<path d="M1793 4153 c-19 -7 -17 -211 3 -314 22 -120 35 -161 121 -384 33 -86
57 -113 69 -80 4 9 -5 40 -19 68 -94 193 -147 399 -152 585 -2 68 -5 125 -7
126 -1 2 -9 1 -15 -1z"/>
<path d="M1960 4022 c0 -9 39 -58 88 -107 53 -55 105 -121 134 -170 58 -100
128 -258 128 -289 0 -26 27 -43 44 -26 13 13 -11 83 -74 215 -64 133 -131 231
-220 321 -74 75 -100 89 -100 56z"/>
<path d="M2952 3953 c-36 -52 -112 -183 -112 -192 0 -6 -13 -33 -30 -61 -37
-63 -38 -80 -5 -80 17 0 25 6 25 17 0 25 54 133 116 233 50 82 59 110 34 110
-5 0 -17 -12 -28 -27z"/>
<path d="M2502 3417 c3 -20 10 -23 88 -29 104 -7 146 -18 242 -62 73 -33 98
-36 98 -12 0 23 -181 95 -262 105 -181 23 -170 23 -166 -2z"/>
<path d="M2125 2210 c-201 -50 -255 -81 -401 -232 -163 -169 -215 -266 -279
-518 -10 -40 -16 -105 -16 -170 1 -113 14 -167 64 -267 47 -91 224 -231 372
-292 124 -52 194 -62 435 -64 297 -2 454 23 595 96 28 14 75 37 105 50 105 47
286 247 326 359 44 125 41 392 -7 492 -43 93 -217 294 -316 367 -104 77 -300
151 -478 179 -38 6 -94 16 -124 21 -85 14 -157 9 -276 -21z m321 -25 c146 -20
329 -68 409 -108 90 -44 174 -108 251 -189 160 -169 200 -241 213 -379 15
-160 -10 -311 -66 -401 -44 -71 -212 -236 -266 -262 -225 -106 -213 -101 -333
-122 -209 -35 -595 -27 -703 15 -153 61 -240 111 -321 187 -162 153 -206 320
-144 551 14 54 29 112 34 128 8 31 86 187 114 227 42 61 242 248 295 276 64
35 177 67 269 78 34 3 65 11 68 16 4 6 19 8 34 5 15 -3 80 -13 146 -22z"/>
<path d="M2207 1973 c-16 -16 -1 -35 102 -130 183 -169 267 -266 312 -360 42
-87 69 -107 69 -52 0 49 -75 162 -193 290 -61 65 -113 119 -116 119 -3 0 -40
32 -81 70 -76 71 -82 75 -93 63z"/>
<path d="M1893 1904 c-59 -92 -102 -251 -129 -466 -13 -113 -14 -137 0 -235
20 -141 50 -223 82 -223 18 0 54 58 54 88 0 30 -14 28 -29 -5 -14 -31 -22 -24
-44 37 -30 84 -40 209 -27 342 6 68 14 127 18 133 3 5 12 37 18 70 30 144 73
253 115 291 24 21 24 34 1 34 -10 0 -33 -26 -59 -66z"/>
<path d="M2763 1933 c3 -16 15 -71 26 -123 12 -52 21 -110 21 -129 0 -55 33
-181 46 -181 26 0 26 -5 -20 290 -22 139 -33 170 -58 170 -17 0 -20 -4 -15
-27z"/>
<path d="M2054 1755 c-9 -22 4 -244 18 -320 30 -166 117 -440 138 -440 25 0
23 35 -9 124 -74 209 -99 330 -109 520 -5 86 -11 126 -19 129 -7 2 -16 -4 -19
-13z"/>
<path d="M3179 1380 c-9 -5 -90 -39 -180 -76 -173 -69 -201 -86 -182 -105 9
-9 51 4 170 54 87 36 170 69 185 72 33 8 52 30 44 50 -6 17 -14 18 -37 5z"/>
<path d="M2302 1303 c6 -34 364 -248 385 -231 19 15 4 36 -45 61 -55 28 -114
63 -225 135 -85 54 -121 65 -115 35z"/>
</g>
</svg>
