<?xml version="1.0" standalone="no"?>
<!DOCTYPE svg PUBLIC "-//W3C//DTD SVG 20010904//EN"
 "http://www.w3.org/TR/2001/REC-SVG-20010904/DTD/svg10.dtd">
<svg version="1.0" xmlns="http://www.w3.org/2000/svg"
 width="510.000000pt" height="466.000000pt" viewBox="0 0 510.000000 466.000000"
 preserveAspectRatio="xMidYMid meet">
<metadata>
Created by potrace 1.16, written by Peter Selinger 2001-2019
</metadata>
<g transform="translate(0.000000,466.000000) scale(0.100000,-0.100000)"
fill="#000000" stroke="none">
<path d="M2159 3800 c-80 -10 -259 -69 -349 -116 -78 -41 -215 -158 -287 -245
-158 -192 -294 -479 -318 -674 -4 -27 -11 -66 -16 -85 -40 -162 -54 -601 -24
-750 62 -300 167 -507 353 -702 58 -60 128 -124 156 -143 113 -75 478 -182
750 -221 153 -22 437 -14 566 15 358 80 346 77 440 136 114 73 185 166 298
390 39 77 78 165 87 195 9 30 21 64 25 75 5 11 18 42 29 68 68 161 77 417 24
666 -20 95 -104 351 -137 418 -14 29 -26 57 -26 63 0 30 -107 206 -191 315
-58 76 -184 200 -239 237 -99 65 -323 176 -400 198 -41 12 -136 41 -210 65
-331 106 -372 113 -531 95z m327 -69 c56 -16 168 -50 250 -76 82 -26 172 -53
199 -62 71 -21 319 -158 390 -215 53 -42 86 -78 211 -226 68 -82 164 -255 164
-296 0 -9 12 -35 26 -57 24 -39 55 -129 109 -316 13 -45 33 -145 45 -223 24
-158 21 -246 -10 -385 -44 -194 -204 -554 -305 -684 -88 -115 -180 -179 -300
-211 -119 -30 -287 -69 -349 -80 -89 -15 -426 -12 -526 4 -231 39 -324 64
-609 167 -65 23 -116 63 -231 178 -108 108 -121 127 -208 286 -71 131 -107
235 -146 425 -27 129 -12 611 22 700 5 14 13 50 17 80 11 80 70 273 106 349
57 117 172 292 243 368 152 163 291 239 561 307 11 3 70 3 130 1 85 -3 133
-10 211 -34z"/>
<path d="M2200 3485 c-58 -8 -129 -14 -157 -14 -47 -1 -53 -3 -53 -22 0 -20 3
-20 99 -14 l99 7 -1 -116 c0 -76 3 -120 11 -128 6 -6 14 -9 17 -7 3 3 6 58 8
122 2 72 8 122 15 129 6 6 31 14 54 17 29 4 43 11 43 21 0 20 -12 20 -135 5z"/>
<path d="M2628 3324 c-17 -17 -5 -21 73 -27 192 -15 419 -181 534 -389 36 -66
55 -84 55 -53 0 47 -96 186 -193 278 -65 61 -105 89 -192 133 -99 50 -119 56
-190 61 -44 3 -83 2 -87 -3z"/>
<path d="M2350 3226 c0 -8 15 -23 33 -33 55 -33 163 -131 207 -188 38 -49 70
-70 70 -46 0 27 -131 165 -221 232 -69 51 -89 59 -89 35z"/>
<path d="M1804 3211 c-30 -18 -154 -158 -260 -291 -32 -41 -65 -81 -71 -88 -7
-7 -13 -17 -13 -20 0 -4 -10 -18 -23 -32 -13 -14 -38 -47 -57 -75 -67 -97 -87
-152 -75 -205 10 -44 25 -37 25 13 0 23 9 62 21 86 21 48 123 190 204 286 28
33 68 83 90 110 62 78 157 176 188 191 15 8 27 18 27 23 0 18 -28 19 -56 2z"/>
<path d="M2074 3085 c-4 -8 -3 -22 0 -31 3 -8 -1 -54 -9 -101 -17 -96 -19
-171 -6 -192 16 -26 28 -2 23 47 -2 27 3 81 12 120 21 94 22 172 1 172 -9 0
-18 -7 -21 -15z"/>
<path d="M2965 2758 c-9 -18 -29 -55 -45 -83 -16 -27 -41 -81 -55 -120 -15
-38 -33 -82 -41 -97 -8 -14 -14 -38 -14 -52 0 -38 -11 -32 -45 25 -26 44 -92
114 -161 170 -10 9 -24 25 -30 35 -9 14 -15 16 -23 8 -17 -16 -4 -41 34 -64
45 -28 125 -117 177 -197 l27 -41 -55 -169 c-64 -193 -95 -303 -88 -315 8 -13
24 -9 24 7 0 12 117 383 139 440 7 18 10 17 29 -15 54 -92 231 -320 248 -320
24 0 15 18 -43 93 -32 39 -69 88 -83 107 -103 147 -120 175 -120 206 0 54 97
289 151 366 23 32 24 48 4 48 -8 0 -22 -15 -30 -32z"/>
<path d="M1970 2665 c-5 -14 -10 -29 -10 -32 0 -5 -72 -150 -147 -295 -18 -35
-24 -35 -43 2 -8 16 -50 72 -93 125 -43 53 -88 112 -99 131 -20 34 -41 43 -54
23 -7 -12 8 -33 132 -191 120 -154 116 -145 93 -193 -11 -22 -36 -78 -56 -125
-19 -47 -48 -111 -64 -142 -32 -63 -36 -88 -16 -88 7 0 24 24 36 53 13 28 40
88 61 132 20 44 48 104 61 133 13 28 26 52 30 52 3 0 12 -13 20 -29 20 -43
194 -273 258 -342 30 -33 62 -59 73 -59 27 0 22 17 -17 51 -38 33 -256 321
-289 380 l-20 37 87 173 c48 96 88 185 90 198 3 33 -21 38 -33 6z"/>
<path d="M3359 2537 c-9 -8 -27 -40 -40 -71 -24 -55 -50 -73 -62 -42 -3 7 -18
16 -34 19 -15 3 -41 9 -58 13 -27 7 -29 6 -16 -9 7 -10 19 -17 26 -17 6 0 32
-14 58 -31 43 -29 46 -32 33 -52 -25 -40 -49 -128 -38 -139 15 -15 29 -2 35
34 9 53 31 108 44 108 7 0 23 -10 36 -22 76 -73 99 -89 112 -84 8 3 15 9 15
13 0 7 -85 80 -135 117 -19 14 -19 15 14 84 35 71 39 109 10 79z"/>
<path d="M2394 2408 c-25 -35 -49 -70 -54 -78 -7 -12 -19 -5 -63 39 -50 49
-77 59 -77 28 0 -6 25 -35 56 -64 l56 -52 -36 -66 c-40 -73 -43 -85 -21 -85 8
0 30 31 50 71 l36 70 82 -67 c45 -38 88 -76 95 -86 17 -23 32 -23 32 0 -1 24
-14 38 -100 111 -41 35 -77 65 -79 67 -2 2 17 35 42 73 57 85 64 101 43 101
-9 0 -36 -28 -62 -62z"/>
<path d="M3600 1578 c-67 -85 -134 -148 -244 -232 -126 -96 -195 -131 -278
-141 -42 -5 -58 -11 -58 -22 0 -23 110 -9 178 22 57 26 204 133 291 211 73 65
166 183 154 195 -6 6 -22 -7 -43 -33z"/>
<path d="M2821 1510 c-76 -86 -121 -151 -121 -175 0 -28 18 -15 50 38 18 28
35 54 39 57 3 3 26 30 51 60 24 30 52 63 62 73 22 22 22 27 4 27 -8 0 -47 -36
-85 -80z"/>
<path d="M2273 1463 c6 -129 22 -202 39 -185 8 8 8 28 0 69 -6 32 -12 97 -14
145 -2 67 -6 88 -17 88 -11 0 -13 -21 -8 -117z"/>
<path d="M1620 1321 c0 -16 9 -18 160 -41 139 -20 290 -59 317 -82 7 -5 21 -7
30 -3 16 6 15 9 -8 29 -32 28 -156 59 -319 81 -63 8 -130 18 -147 20 -19 4
-33 2 -33 -4z"/>
<path d="M2620 1251 c0 -90 5 -85 -97 -96 -47 -5 -63 -11 -63 -22 0 -14 12
-15 93 -8 247 20 242 19 245 38 3 15 -6 17 -73 17 l-77 0 5 53 c2 28 8 62 12
75 6 19 4 22 -19 22 -26 0 -26 0 -26 -79z"/>
</g>
</svg>
