<?xml version="1.0" standalone="no"?>
<!DOCTYPE svg PUBLIC "-//W3C//DTD SVG 20010904//EN"
 "http://www.w3.org/TR/2001/REC-SVG-20010904/DTD/svg10.dtd">
<svg version="1.0" xmlns="http://www.w3.org/2000/svg"
 width="510.000000pt" height="466.000000pt" viewBox="0 0 510.000000 466.000000"
 preserveAspectRatio="xMidYMid meet">
<metadata>
Created by potrace 1.16, written by Peter Selinger 2001-2019
</metadata>
<g transform="translate(0.000000,466.000000) scale(0.100000,-0.100000)"
fill="#000000" stroke="none">
<path d="M1420 3784 c-83 -12 -195 -41 -215 -54 -5 -4 -48 -19 -95 -35 -150
-49 -292 -138 -400 -252 -54 -56 -120 -137 -120 -146 0 -3 -17 -34 -39 -69
-69 -113 -98 -185 -155 -379 -34 -118 -45 -434 -21 -629 26 -217 130 -538 220
-679 83 -131 249 -280 452 -408 137 -86 185 -108 298 -139 89 -24 122 -28 302
-32 298 -6 597 27 733 82 30 12 78 28 105 36 60 16 266 100 350 143 72 37 181
111 214 146 121 130 158 173 186 216 55 88 114 230 151 362 31 113 36 147 41
283 7 184 -10 310 -64 489 -47 156 -77 217 -164 341 -76 107 -283 338 -359
400 -86 71 -156 120 -211 150 -64 34 -198 90 -216 90 -6 0 -54 13 -105 30
-150 47 -348 70 -594 69 -115 -1 -247 -8 -294 -15z m662 -39 c156 -26 265 -55
413 -111 171 -64 286 -151 490 -370 72 -76 138 -150 147 -164 82 -117 105
-153 134 -210 42 -83 99 -282 119 -412 32 -215 15 -391 -59 -613 -61 -182
-107 -262 -222 -388 -78 -85 -124 -126 -194 -171 -165 -106 -555 -250 -761
-280 -382 -57 -737 -40 -926 44 -57 25 -254 155 -359 236 -238 184 -372 443
-451 869 -24 129 -23 487 2 605 56 271 183 515 347 670 138 130 309 219 432
224 38 2 51 7 56 22 16 43 201 71 480 73 175 1 227 -3 352 -24z"/>
<path d="M1685 3564 c-33 -7 -108 -21 -167 -31 -80 -12 -108 -21 -108 -31 0
-12 11 -14 63 -8 34 4 87 9 118 13 l56 6 12 -94 c17 -125 21 -139 38 -139 10
0 12 8 8 33 -8 49 -24 212 -20 215 2 2 27 9 56 15 57 13 80 38 32 36 -15 0
-55 -7 -88 -15z"/>
<path d="M2020 3330 c0 -5 75 -48 168 -94 92 -47 196 -104 232 -127 81 -52
218 -190 245 -246 11 -24 23 -43 27 -43 22 0 14 28 -28 92 -89 140 -217 236
-468 357 -146 70 -176 80 -176 61z"/>
<path d="M1121 3234 c-101 -69 -309 -283 -459 -475 -46 -59 -54 -79 -32 -79 4
0 27 26 51 58 115 154 361 410 451 469 21 15 55 29 74 32 46 8 48 25 4 29 -27
2 -48 -6 -89 -34z"/>
<path d="M1610 3141 c0 -13 26 -21 65 -21 60 0 170 -105 248 -239 18 -30 38
-56 45 -59 14 -4 17 34 3 43 -6 3 -23 29 -40 58 -36 64 -139 178 -185 206 -34
22 -136 30 -136 12z"/>
<path d="M1313 3129 c-16 -16 -17 -184 -2 -248 9 -41 8 -46 -25 -95 -59 -86
-96 -140 -101 -144 -2 -3 -57 39 -121 92 -64 53 -123 96 -130 96 -30 0 -11
-37 34 -67 46 -31 120 -93 170 -141 22 -21 22 -25 9 -45 -8 -12 -45 -80 -82
-152 -38 -71 -74 -139 -82 -150 -18 -26 -17 -47 3 -43 8 2 54 77 101 168 47
91 90 168 97 172 6 4 88 -71 209 -192 l197 -200 87 -35 c47 -19 101 -37 119
-41 l34 -6 2 -164 c2 -103 7 -163 13 -162 6 2 9 61 8 156 -1 84 1 152 5 150
56 -30 144 -65 244 -98 81 -27 129 -48 140 -63 15 -20 17 -20 24 -4 11 29 -24
56 -105 81 -111 34 -292 107 -297 120 -2 6 -5 103 -7 215 -1 140 -6 206 -13
208 -19 6 -23 -63 -15 -242 4 -93 6 -172 5 -174 -2 -2 -63 20 -136 50 -129 52
-134 55 -157 99 -15 27 -82 100 -172 185 -81 77 -151 148 -154 158 -4 12 0 27
12 40 11 12 41 52 67 90 26 37 72 96 101 131 30 35 51 66 48 70 -15 15 -34 3
-59 -34 -42 -63 -53 -42 -56 107 -2 99 -5 122 -15 112z"/>
<path d="M2367 2800 c-21 -22 -37 -45 -37 -52 0 -18 -33 -88 -41 -88 -5 0 -12
6 -16 14 -4 8 -28 35 -52 61 -31 33 -47 43 -54 36 -8 -8 5 -28 47 -70 58 -59
58 -60 46 -93 -20 -53 -40 -192 -30 -202 11 -11 14 -2 30 84 6 36 16 82 22
103 12 39 28 50 28 19 0 -25 156 -166 166 -150 5 7 -19 36 -63 77 -98 93 -101
100 -64 165 17 29 31 60 31 68 0 9 10 22 23 31 16 11 19 18 11 26 -8 9 -20 1
-47 -29z"/>
<path d="M2823 2294 c-26 -36 -55 -75 -64 -86 l-16 -21 -47 31 c-55 38 -79 41
-74 11 2 -13 19 -30 43 -43 69 -37 67 -34 40 -70 -14 -18 -25 -36 -25 -40 0
-4 -11 -22 -25 -40 -28 -37 -32 -56 -11 -56 7 0 35 34 61 75 26 41 51 75 56
75 4 0 24 -10 43 -22 87 -56 105 -66 110 -60 16 15 0 32 -64 73 -38 24 -70 47
-70 51 0 10 67 106 98 140 22 24 23 48 2 48 -5 0 -31 -30 -57 -66z"/>
<path d="M1500 2210 c0 -5 7 -10 15 -10 8 0 15 5 15 10 0 6 -7 10 -15 10 -8 0
-15 -4 -15 -10z"/>
<path d="M2240 1788 c-89 -92 -176 -231 -196 -310 -10 -42 14 -35 32 10 8 20
20 46 26 57 6 10 21 38 33 61 29 55 47 79 92 128 67 72 75 84 64 90 -5 4 -28
-13 -51 -36z"/>
<path d="M2777 1614 c-229 -197 -299 -249 -364 -269 -44 -14 -52 -20 -39 -27
29 -16 106 18 192 84 120 92 404 340 404 352 0 21 -45 -12 -193 -140z"/>
<path d="M1537 1713 c-3 -5 -10 -46 -17 -93 -13 -95 -11 -182 6 -187 8 -3 13
33 18 109 3 62 9 128 12 146 6 29 -7 45 -19 25z"/>
<path d="M850 1480 c0 -12 1 -12 230 -45 122 -18 214 -37 270 -56 116 -41 140
-45 140 -25 0 35 -125 69 -408 110 -189 28 -232 31 -232 16z"/>
<path d="M1768 1435 c-7 -7 31 -157 44 -172 16 -20 -14 -26 -112 -21 -80 4
-90 2 -90 -13 0 -25 102 -34 200 -19 41 6 101 14 133 17 61 6 78 17 56 38 -12
12 -24 12 -76 1 -47 -10 -66 -11 -77 -2 -7 6 -20 48 -27 94 -10 64 -16 82 -29
82 -9 0 -19 -2 -22 -5z"/>
</g>
</svg>
