<?xml version="1.0" standalone="no"?>
<!DOCTYPE svg PUBLIC "-//W3C//DTD SVG 20010904//EN"
 "http://www.w3.org/TR/2001/REC-SVG-20010904/DTD/svg10.dtd">
<svg version="1.0" xmlns="http://www.w3.org/2000/svg"
 width="503.000000pt" height="466.000000pt" viewBox="0 0 503.000000 466.000000"
 preserveAspectRatio="xMidYMid meet">
<metadata>
Created by potrace 1.16, written by Peter Selinger 2001-2019
</metadata>
<g transform="translate(0.000000,466.000000) scale(0.100000,-0.100000)"
fill="#000000" stroke="none">
<path d="M2314 3830 c-95 -6 -141 -14 -219 -40 -55 -17 -112 -38 -127 -46 -34
-18 -39 -18 -32 1 9 22 -19 19 -40 -4 -10 -10 -54 -34 -99 -51 -121 -48 -178
-84 -261 -161 -153 -143 -269 -366 -335 -643 -90 -378 -52 -1081 72 -1331 49
-99 179 -246 275 -311 24 -16 69 -46 100 -67 241 -160 584 -246 932 -233 259
9 592 61 730 113 105 39 265 121 327 167 163 121 335 338 420 529 92 209 114
277 158 497 35 169 25 258 -65 620 -35 141 -65 212 -138 335 -79 134 -269 342
-367 404 -55 34 -229 111 -253 111 -5 0 -51 16 -100 35 -79 30 -111 37 -264
50 -95 9 -204 20 -243 25 -80 11 -292 10 -471 0z m647 -50 c144 -14 230 -27
268 -41 31 -11 96 -34 146 -50 193 -65 277 -110 350 -190 22 -24 61 -64 86
-89 118 -116 239 -326 283 -492 116 -436 121 -569 32 -874 -38 -130 -129 -341
-178 -413 -17 -25 -50 -73 -72 -106 -56 -83 -220 -243 -307 -300 -131 -85
-300 -152 -450 -180 -342 -63 -683 -79 -904 -42 -413 70 -793 314 -911 586
-35 78 -61 182 -90 356 -26 155 -31 580 -9 738 60 439 231 766 478 915 95 57
283 112 387 112 19 0 48 -7 64 -15 15 -8 35 -15 43 -15 27 0 7 24 -41 49 l-48
25 54 14 c87 23 161 29 390 31 152 1 281 -5 429 -19z"/>
<path d="M2500 3606 c-96 -9 -115 -14 -118 -28 -4 -21 1 -21 122 -8 49 6 90 9
92 8 1 -2 -4 -28 -12 -58 -17 -66 -10 -166 13 -174 25 -10 31 2 20 42 -8 28
-7 59 3 116 l14 77 51 -2 c38 -2 50 0 50 11 0 30 -56 33 -235 16z"/>
<path d="M3067 3408 c-21 -6 -41 -17 -44 -25 -10 -26 18 -32 61 -12 69 31 164
21 314 -33 71 -26 96 -41 152 -94 73 -70 130 -165 132 -224 1 -27 -12 -56 -56
-123 -67 -104 -73 -117 -54 -117 12 0 110 137 125 175 7 19 33 20 33 1 0 -8
16 -37 35 -65 19 -28 35 -54 35 -58 0 -5 12 -26 26 -47 15 -21 30 -50 33 -65
9 -33 37 -35 34 -3 -3 24 -82 164 -137 242 -17 25 -38 65 -45 90 -37 127 -136
243 -254 299 -129 60 -291 85 -390 59z"/>
<path d="M2137 3356 c-127 -46 -320 -286 -388 -484 -18 -51 -66 -127 -232
-367 -77 -111 -89 -135 -63 -135 13 0 48 44 138 172 20 29 62 89 94 133 31 44
61 90 67 102 6 13 16 23 22 23 11 0 95 -129 95 -146 0 -6 78 -152 148 -277 12
-22 22 -46 22 -53 0 -13 25 -26 34 -17 15 16 2 56 -47 138 -29 50 -79 142
-111 206 -32 64 -75 139 -96 167 l-39 51 38 78 c51 102 124 205 210 292 60 61
78 73 130 87 36 10 61 23 61 31 0 16 -34 16 -83 -1z"/>
<path d="M2700 3270 c0 -5 18 -19 39 -30 22 -10 56 -40 78 -66 21 -26 65 -76
99 -113 33 -36 68 -85 77 -108 16 -42 16 -43 -8 -78 -13 -20 -34 -69 -45 -108
-12 -40 -41 -124 -65 -187 -24 -63 -54 -144 -66 -180 -12 -36 -33 -80 -47 -98
-16 -23 -21 -37 -14 -44 18 -18 59 53 102 172 22 63 51 142 65 175 13 33 34
94 46 136 22 75 47 123 55 104 5 -11 78 -130 208 -340 43 -70 84 -141 90 -159
6 -17 16 -33 21 -34 21 -6 15 29 -16 90 -35 69 -187 319 -250 410 -29 43 -39
67 -39 96 0 59 -25 109 -89 176 -31 34 -76 85 -100 114 -24 29 -56 59 -72 67
-32 17 -69 20 -69 5z"/>
<path d="M2330 3198 c0 -13 11 -77 25 -143 14 -66 25 -123 25 -127 0 -5 7 -8
15 -8 19 0 19 3 -6 135 -12 61 -24 122 -26 138 -6 33 -33 37 -33 5z"/>
<path d="M2399 2843 c-12 -27 -27 -61 -34 -78 -46 -104 -64 -160 -56 -168 11
-11 41 8 41 25 0 6 15 45 34 87 18 42 36 85 40 96 6 17 11 13 30 -25 13 -25
42 -75 64 -112 23 -37 48 -84 57 -104 8 -20 20 -34 27 -31 25 8 6 63 -56 167
-35 58 -73 124 -85 148 -12 23 -26 42 -32 42 -5 0 -19 -21 -30 -47z"/>
<path d="M3919 2162 c-19 -21 -52 -60 -74 -87 -78 -96 -97 -115 -111 -115 -8
0 -14 8 -14 18 0 31 -114 190 -137 191 -21 1 -15 -12 28 -70 22 -30 51 -75 65
-101 13 -26 28 -49 34 -53 5 -3 10 -15 10 -26 0 -29 27 -23 35 8 8 33 25 13
18 -21 -10 -43 -42 -142 -57 -179 -59 -137 -262 -374 -376 -438 -39 -22 -54
-49 -27 -49 15 0 86 44 139 87 86 70 242 272 283 368 34 79 65 189 65 229 0
46 9 60 108 179 34 42 62 80 62 86 0 20 -18 11 -51 -27z"/>
<path d="M2790 2033 c0 -20 49 -109 153 -277 44 -71 87 -148 96 -171 9 -23 19
-43 24 -44 20 -3 27 0 27 14 0 8 4 15 10 15 28 0 84 82 237 350 60 105 64 115
45 115 -8 0 -28 -27 -46 -60 -52 -97 -195 -332 -222 -365 -29 -34 -44 -38 -44
-12 0 9 -17 42 -37 72 -59 86 -213 353 -213 367 0 7 -7 13 -15 13 -8 0 -15 -7
-15 -17z"/>
<path d="M2099 2008 c-13 -18 -59 -89 -102 -158 -101 -160 -159 -239 -174
-240 -18 0 -16 20 7 63 24 44 24 47 4 47 -8 0 -22 -16 -30 -35 -8 -19 -18 -35
-22 -35 -4 0 -20 21 -37 48 -16 26 -61 80 -98 121 -38 41 -85 98 -104 128 -22
32 -43 53 -54 53 -42 0 -20 -38 108 -183 136 -154 183 -227 183 -283 0 -47 21
-100 49 -122 60 -48 265 -129 352 -139 45 -5 49 -4 49 15 0 22 -10 25 -105 38
-64 8 -189 53 -243 87 -72 46 -94 119 -44 148 15 9 59 64 98 122 217 333 224
345 198 354 -7 2 -22 -11 -35 -29z"/>
<path d="M2595 1759 c-22 -49 -50 -102 -62 -117 -20 -25 -22 -26 -35 -9 -7 10
-31 58 -53 108 -28 62 -45 88 -55 86 -28 -6 -8 -62 78 -219 26 -47 29 -61 22
-90 -40 -150 -45 -228 -16 -228 8 0 17 38 25 108 8 78 19 121 37 157 92 179
134 267 134 283 0 7 -8 12 -17 12 -13 0 -30 -27 -58 -91z"/>
<path d="M3123 1548 c-40 -40 -82 -84 -93 -98 -11 -14 -24 -30 -29 -36 -11
-13 -51 -91 -51 -99 0 -3 6 -5 14 -5 8 0 28 22 44 48 16 26 35 54 43 62 8 8
26 31 41 51 14 19 49 57 77 84 28 27 51 53 51 57 0 22 -32 1 -97 -64z"/>
<path d="M2640 1323 c0 -16 5 -45 11 -67 14 -51 6 -56 -97 -56 -59 0 -85 -4
-94 -15 -18 -22 -2 -38 34 -31 17 3 105 8 196 12 91 3 169 9 173 13 17 16 -22
30 -93 33 l-75 3 -3 68 c-3 64 -4 67 -27 67 -21 0 -25 -5 -25 -27z"/>
</g>
</svg>
