<?xml version="1.0" standalone="no"?>
<!DOCTYPE svg PUBLIC "-//W3C//DTD SVG 20010904//EN"
 "http://www.w3.org/TR/2001/REC-SVG-20010904/DTD/svg10.dtd">
<svg version="1.0" xmlns="http://www.w3.org/2000/svg"
 width="517.000000pt" height="466.000000pt" viewBox="0 0 517.000000 466.000000"
 preserveAspectRatio="xMidYMid meet">
<metadata>
Created by potrace 1.16, written by Peter Selinger 2001-2019
</metadata>
<g transform="translate(0.000000,466.000000) scale(0.100000,-0.100000)"
fill="#000000" stroke="none">
<path d="M2020 4479 c-30 -5 -89 -14 -130 -20 -227 -34 -477 -206 -644 -444
-101 -145 -181 -299 -212 -410 -28 -98 -54 -239 -54 -287 0 -103 30 -250 65
-323 99 -202 234 -302 497 -364 236 -56 321 -66 588 -66 l245 0 125 43 c174
60 276 131 389 275 40 52 115 205 141 290 57 189 38 462 -44 633 -24 50 -48
105 -81 184 -46 108 -181 266 -286 333 -85 54 -229 123 -303 146 -73 23 -191
26 -296 10z m258 -30 c26 -6 111 -42 188 -80 114 -55 156 -82 213 -135 93 -86
162 -181 197 -268 16 -39 44 -102 63 -141 31 -64 40 -91 74 -210 6 -22 11
-107 10 -190 0 -136 -3 -158 -28 -235 -48 -151 -101 -243 -196 -345 -103 -109
-167 -148 -332 -202 l-112 -37 -235 0 c-263 -1 -361 11 -582 69 -258 68 -375
156 -462 348 -61 133 -71 332 -26 502 47 179 118 320 253 502 115 153 252 270
399 337 96 45 168 63 308 76 63 7 117 14 119 16 8 8 103 4 149 -7z"/>
<path d="M2003 4278 c-124 -13 -165 -22 -177 -40 -14 -23 -1 -33 27 -21 13 6
49 14 79 18 l56 7 -11 -40 c-13 -50 4 -116 34 -133 28 -14 36 -4 16 19 -11 12
-17 36 -17 70 0 52 7 62 66 98 34 21 3 31 -73 22z"/>
<path d="M1950 3961 c-25 -4 -59 -14 -76 -24 -21 -11 -43 -14 -68 -10 -29 5
-51 -1 -109 -30 -78 -39 -121 -79 -178 -167 -64 -99 -74 -155 -74 -410 l0
-225 30 -54 c80 -144 188 -207 445 -262 91 -19 123 -21 240 -16 223 11 299 29
417 97 86 50 139 104 197 205 69 120 80 167 81 325 l0 135 -40 89 c-84 189
-249 297 -518 340 -97 16 -263 19 -347 7z m319 -36 c208 -31 301 -71 411 -177
69 -67 79 -82 114 -170 39 -96 39 -97 34 -205 -7 -139 -32 -209 -127 -352 -36
-53 -102 -106 -189 -150 -82 -42 -187 -62 -357 -68 -155 -5 -164 -4 -285 26
-69 17 -149 44 -179 59 -73 36 -157 114 -187 173 -23 47 -24 55 -24 267 0 247
7 280 81 397 49 78 94 119 173 156 88 42 111 39 56 -8 -27 -22 -40 -53 -24
-53 3 0 27 17 53 39 25 21 57 44 70 51 59 31 225 37 380 15z"/>
<path d="M2284 3722 c-14 -10 -32 -150 -49 -392 -8 -113 -17 -235 -21 -272 -5
-56 -4 -68 8 -68 17 0 20 25 38 310 7 102 20 237 30 300 18 111 17 137 -6 122z"/>
<path d="M1692 3633 c-27 -59 -49 -163 -56 -267 -3 -44 -15 -142 -26 -219 -12
-82 -17 -144 -12 -149 17 -17 35 24 42 95 17 164 32 296 42 362 11 73 44 183
59 200 14 15 10 25 -9 25 -12 0 -26 -16 -40 -47z"/>
<path d="M2400 3359 c0 -14 13 -25 97 -81 34 -22 67 -52 74 -65 13 -25 39 -31
39 -9 0 23 -52 74 -124 121 -72 47 -86 53 -86 34z"/>
<path d="M1826 3308 c8 -38 25 -71 76 -148 58 -88 85 -117 97 -104 8 7 -5 34
-45 95 -31 46 -68 108 -81 137 -28 60 -59 73 -47 20z"/>
<path d="M1730 2360 c-83 -6 -135 -17 -248 -53 -79 -25 -153 -53 -165 -61 -12
-9 -47 -32 -77 -52 -85 -56 -154 -119 -246 -221 -100 -113 -131 -166 -178
-303 -63 -189 -75 -241 -82 -365 -10 -179 26 -337 109 -477 59 -100 281 -282
402 -329 207 -80 529 -99 805 -48 30 6 113 29 184 51 156 50 263 116 384 238
127 128 274 375 337 561 43 132 58 252 46 376 -10 95 -16 118 -52 190 -34 70
-56 97 -153 191 -108 103 -246 205 -311 230 -40 15 -128 36 -252 61 -108 22
-286 26 -503 11z m460 -41 c110 -17 270 -58 313 -81 84 -42 164 -104 272 -209
109 -107 124 -128 163 -224 39 -98 35 -336 -8 -455 -86 -236 -213 -455 -335
-575 -143 -140 -258 -205 -456 -258 -152 -41 -242 -52 -429 -51 -193 1 -304
17 -425 62 -87 32 -125 56 -245 156 -151 125 -172 154 -226 316 -36 110 -38
121 -38 245 1 152 10 202 71 385 54 161 96 230 218 358 137 144 284 233 465
281 47 13 94 28 105 34 11 6 47 14 80 17 96 11 404 11 475 -1z"/>
<path d="M1825 2070 c-51 -8 -200 -59 -292 -101 -82 -38 -256 -182 -302 -250
-87 -130 -121 -241 -121 -394 0 -97 20 -218 45 -271 21 -46 92 -121 138 -148
48 -28 185 -59 331 -76 99 -12 184 -7 385 21 154 22 395 141 487 240 142 155
187 467 94 651 -41 81 -59 103 -128 161 -139 115 -223 149 -417 167 -114 11
-150 11 -220 0z m270 -40 c159 -23 277 -81 387 -191 87 -87 138 -240 123 -373
-7 -73 -51 -205 -88 -268 -67 -114 -213 -211 -417 -278 -110 -36 -305 -56
-460 -47 -105 6 -266 40 -321 68 -47 23 -106 89 -130 145 -60 140 -47 392 27
531 82 155 228 277 419 352 117 45 165 57 165 42 0 -19 27 -12 33 9 5 18 13
20 99 20 51 0 125 -5 163 -10z"/>
<path d="M2166 1892 c-9 -14 -36 -206 -36 -253 0 -42 -49 -358 -75 -484 -13
-66 -9 -95 13 -81 5 3 12 25 15 48 4 24 13 77 22 118 23 119 55 349 55 404 0
28 7 94 14 146 13 84 9 130 -8 102z"/>
<path d="M1620 1830 c-29 -55 -127 -323 -154 -420 -61 -226 -61 -270 -3 -225
14 10 17 21 13 42 -4 15 1 55 10 88 9 33 20 80 25 105 5 25 13 56 18 70 26 72
105 270 122 306 24 51 24 54 -1 54 -10 0 -24 -9 -30 -20z"/>
<path d="M2240 1575 c0 -8 9 -19 20 -25 10 -6 32 -29 49 -53 16 -23 46 -60 66
-82 20 -22 47 -56 60 -77 30 -45 40 -51 54 -34 10 11 6 21 -17 48 -15 18 -38
49 -50 68 -25 41 -155 170 -171 170 -6 0 -11 -7 -11 -15z"/>
<path d="M1684 1539 c-11 -18 134 -338 154 -339 27 -1 9 66 -54 199 -63 133
-85 163 -100 140z"/>
<path d="M1783 714 c-2 -52 -5 -100 -8 -105 -4 -5 -48 -9 -99 -9 -91 0 -116
-8 -116 -37 0 -10 30 -12 128 -10 70 1 162 -2 205 -7 67 -7 77 -6 77 7 0 11
-21 20 -76 33 l-77 17 6 79 c3 43 10 85 17 93 16 20 4 35 -28 35 l-27 0 -2
-96z"/>
<path d="M2238 383 c7 -3 16 -2 19 1 4 3 -2 6 -13 5 -11 0 -14 -3 -6 -6z"/>
<path d="M1810 370 c0 -5 11 -10 24 -10 14 0 28 5 31 10 4 6 -7 10 -24 10 -17
0 -31 -4 -31 -10z"/>
</g>
</svg>
